<svg width="113" height="190" viewBox="0 0 113 190" fill="none" xmlns="http://www.w3.org/2000/svg">
  <g clip-path="url(#clip0_1214_11216)">
  <line y1="-0.25" x2="86.9305" y2="-0.25" transform="matrix(1 -9.05097e-08 -8.44411e-08 -1 -31.8828 109.518)" stroke="#2562FF" stroke-width="0.5"/>
  <line y1="-0.25" x2="80" y2="-0.25" transform="matrix(-4.22206e-08 -1 -1 4.52549e-08 26.0703 149.518)" stroke="#2562FF" stroke-width="0.5"/>
  <line y1="-0.25" x2="86.9305" y2="-0.25" transform="matrix(1 -9.05097e-08 -8.44411e-08 -1 26.0703 69.5176)" stroke="#2562FF" stroke-width="0.5"/>
  <line y1="-0.25" x2="80" y2="-0.25" transform="matrix(-4.22206e-08 -1 -1 4.52549e-08 84.0234 109.518)" stroke="#2562FF" stroke-width="0.5"/>
  <line y1="-0.25" x2="86.9305" y2="-0.25" transform="matrix(1 -9.05097e-08 -8.44411e-08 -1 -31.8828 29.5176)" stroke="#2562FF" stroke-width="0.5"/>
  <line y1="-0.25" x2="80" y2="-0.25" transform="matrix(-4.22206e-08 -1 -1 4.52549e-08 26.0703 69.5176)" stroke="#2562FF" stroke-width="0.5"/>
  <line y1="-0.25" x2="80" y2="-0.25" transform="matrix(-4.22206e-08 -1 -1 4.52549e-08 84.0234 29.5176)" stroke="#2562FF" stroke-width="0.5"/>
  </g>
  <defs>
  <clipPath id="clip0_1214_11216">
  <rect width="113" height="190" fill="white"/>
  </clipPath>
  </defs>
  </svg>
  