<svg width="193" height="230" viewBox="0 0 193 230" fill="none" xmlns="http://www.w3.org/2000/svg">
  <g clip-path="url(#clip0_121_1941)">
    <g opacity="0.5">
      <line y1="-0.25" x2="80" y2="-0.25"
        transform="matrix(4.37114e-08 1 1 -4.37114e-08 173 -50.4824)" stroke="#2562FF"
        stroke-width="0.5" />
      <line y1="-0.25" x2="90" y2="-0.25"
        transform="matrix(-1 8.74228e-08 8.74228e-08 1 233 69.5176)" stroke="#2562FF"
        stroke-width="0.5" />
      <line y1="-0.25" x2="80" y2="-0.25"
        transform="matrix(4.37114e-08 1 1 -4.37114e-08 173 29.5176)" stroke="#2562FF"
        stroke-width="0.5" />
      <line y1="-0.25" x2="90" y2="-0.25"
        transform="matrix(-1 8.74228e-08 8.74228e-08 1 233 149.518)" stroke="#2562FF"
        stroke-width="0.5" />
      <line y1="-0.25" x2="80" y2="-0.25"
        transform="matrix(4.37114e-08 1 1 -4.37114e-08 173 109.518)" stroke="#2562FF"
        stroke-width="0.5" />
      <line y1="-0.25" x2="80" y2="-0.25"
        transform="matrix(4.37114e-08 1 1 -4.37114e-08 89.7969 -50.4824)" stroke="#2562FF"
        stroke-width="0.5" />
      <line y1="-0.25" x2="90" y2="-0.25"
        transform="matrix(-1 8.74228e-08 8.74228e-08 1 89.7969 29.5176)" stroke="#2562FF"
        stroke-width="0.5" />
      <line y1="-0.25" x2="80" y2="-0.25"
        transform="matrix(4.37114e-08 1 1 -4.37114e-08 29.7969 -10.4824)" stroke="#2562FF"
        stroke-width="0.5" />
      <line y1="-0.25" x2="90" y2="-0.25"
        transform="matrix(-1 8.74228e-08 8.74228e-08 1 149.797 69.5176)" stroke="#2562FF"
        stroke-width="0.5" />
      <line y1="-0.25" x2="80" y2="-0.25"
        transform="matrix(4.37114e-08 1 1 -4.37114e-08 89.7969 29.5176)" stroke="#2562FF"
        stroke-width="0.5" />
      <line y1="-0.25" x2="90" y2="-0.25"
        transform="matrix(-1 8.74228e-08 8.74228e-08 1 89.7969 109.518)" stroke="#2562FF"
        stroke-width="0.5" />
      <line y1="-0.25" x2="80" y2="-0.25"
        transform="matrix(4.37114e-08 1 1 -4.37114e-08 29.7969 69.5176)" stroke="#2562FF"
        stroke-width="0.5" />
      <line y1="-0.25" x2="90" y2="-0.25"
        transform="matrix(-1 8.74228e-08 8.74228e-08 1 149.797 149.518)" stroke="#2562FF"
        stroke-width="0.5" />
      <line y1="-0.25" x2="80" y2="-0.25"
        transform="matrix(4.37114e-08 1 1 -4.37114e-08 89.7969 109.518)" stroke="#2562FF"
        stroke-width="0.5" />
      <line y1="-0.25" x2="90" y2="-0.25"
        transform="matrix(-1 8.74228e-08 8.74228e-08 1 89.7969 189.518)" stroke="#2562FF"
        stroke-width="0.5" />
      <line y1="-0.25" x2="80" y2="-0.25"
        transform="matrix(4.37114e-08 1 1 -4.37114e-08 29.7969 149.518)" stroke="#2562FF"
        stroke-width="0.5" />
    </g>
  </g>
  <defs>
    <clipPath id="clip0_121_1941">
      <rect width="193" height="230" fill="white" transform="matrix(-1 0 0 -1 193 230)" />
    </clipPath>
  </defs>
</svg>
  