<svg width="1920" height="764" viewBox="0 0 1920 764" fill="none" xmlns="http://www.w3.org/2000/svg">
<g clip-path="url(#clip0_110_3101)">
<g opacity="0.1">
<line x1="1546.5" y1="-181" x2="1546.5" y2="19" stroke="#2562FF"/>
<line x1="1546" y1="18.5" x2="1771" y2="18.5" stroke="#2562FF"/>
<line x1="1696.5" y1="-81" x2="1696.5" y2="119" stroke="#2562FF"/>
<line x1="1396" y1="118.5" x2="1621" y2="118.5" stroke="#2562FF"/>
<line x1="1546.5" y1="19" x2="1546.5" y2="219" stroke="#2562FF"/>
<line x1="1546" y1="218.5" x2="1771" y2="218.5" stroke="#2562FF"/>
<line x1="1696.5" y1="119" x2="1696.5" y2="319" stroke="#2562FF"/>
<line x1="1396" y1="318.5" x2="1621" y2="318.5" stroke="#2562FF"/>
<line x1="1546.5" y1="219" x2="1546.5" y2="419" stroke="#2562FF"/>
<line x1="1546" y1="418.5" x2="1771" y2="418.5" stroke="#2562FF"/>
<line x1="1696.5" y1="319" x2="1696.5" y2="519" stroke="#2562FF"/>
<line x1="1396" y1="518.5" x2="1621" y2="518.5" stroke="#2562FF"/>
<line x1="1546.5" y1="419" x2="1546.5" y2="619" stroke="#2562FF"/>
<line x1="1546" y1="618.5" x2="1771" y2="618.5" stroke="#2562FF"/>
<line x1="1696.5" y1="519" x2="1696.5" y2="719" stroke="#2562FF"/>
<line x1="1754" y1="18.5" x2="1979" y2="18.5" stroke="#2562FF"/>
<line x1="1904.5" y1="-81" x2="1904.5" y2="119" stroke="#2562FF"/>
<line x1="1904" y1="118.5" x2="2129" y2="118.5" stroke="#2562FF"/>
<line x1="1754" y1="218.5" x2="1979" y2="218.5" stroke="#2562FF"/>
<line x1="1904.5" y1="119" x2="1904.5" y2="319" stroke="#2562FF"/>
<line x1="1904" y1="318.5" x2="2129" y2="318.5" stroke="#2562FF"/>
<line x1="1754" y1="418.5" x2="1979" y2="418.5" stroke="#2562FF"/>
<line x1="1904.5" y1="319" x2="1904.5" y2="519" stroke="#2562FF"/>
<line x1="1904" y1="518.5" x2="2129" y2="518.5" stroke="#2562FF"/>
<line x1="1754" y1="618.5" x2="1979" y2="618.5" stroke="#2562FF"/>
<line x1="1904.5" y1="519" x2="1904.5" y2="719" stroke="#2562FF"/>
<line x1="1904" y1="718.5" x2="2129" y2="718.5" stroke="#2562FF"/>
</g>
<g opacity="0.05">
<line x1="744.5" y1="-181" x2="744.5" y2="19" stroke="#2562FF"/>
<line x1="744" y1="18.5" x2="969" y2="18.5" stroke="#2562FF"/>
<line x1="894.5" y1="-81" x2="894.5" y2="119" stroke="#2562FF"/>
<line x1="594" y1="118.5" x2="819" y2="118.5" stroke="#2562FF"/>
<line x1="744.5" y1="19" x2="744.5" y2="219" stroke="#2562FF"/>
<line x1="744" y1="218.5" x2="969" y2="218.5" stroke="#2562FF"/>
<line x1="894.5" y1="119" x2="894.5" y2="319" stroke="#2562FF"/>
<line x1="594" y1="318.5" x2="819" y2="318.5" stroke="#2562FF"/>
<line x1="744.5" y1="219" x2="744.5" y2="419" stroke="#2562FF"/>
<line x1="744" y1="418.5" x2="969" y2="418.5" stroke="#2562FF"/>
<line x1="894.5" y1="319" x2="894.5" y2="519" stroke="#2562FF"/>
<line x1="594" y1="518.5" x2="819" y2="518.5" stroke="#2562FF"/>
<line x1="744.5" y1="419" x2="744.5" y2="619" stroke="#2562FF"/>
<line x1="744" y1="618.5" x2="969" y2="618.5" stroke="#2562FF"/>
<line x1="894.5" y1="519" x2="894.5" y2="719" stroke="#2562FF"/>
<line x1="952" y1="18.5" x2="1177" y2="18.5" stroke="#2562FF"/>
<line x1="1102.5" y1="-81" x2="1102.5" y2="119" stroke="#2562FF"/>
<line x1="1102" y1="118.5" x2="1327" y2="118.5" stroke="#2562FF"/>
<line x1="1252.5" y1="19" x2="1252.5" y2="219" stroke="#2562FF"/>
<line x1="952" y1="218.5" x2="1177" y2="218.5" stroke="#2562FF"/>
<line x1="1102.5" y1="119" x2="1102.5" y2="319" stroke="#2562FF"/>
<line x1="1102" y1="318.5" x2="1327" y2="318.5" stroke="#2562FF"/>
<line x1="1252.5" y1="219" x2="1252.5" y2="419" stroke="#2562FF"/>
<line x1="952" y1="418.5" x2="1177" y2="418.5" stroke="#2562FF"/>
<line x1="1102.5" y1="319" x2="1102.5" y2="519" stroke="#2562FF"/>
<line x1="1102" y1="518.5" x2="1327" y2="518.5" stroke="#2562FF"/>
<line x1="1252.5" y1="419" x2="1252.5" y2="619" stroke="#2562FF"/>
<line x1="952" y1="618.5" x2="1177" y2="618.5" stroke="#2562FF"/>
<line x1="1102.5" y1="519" x2="1102.5" y2="719" stroke="#2562FF"/>
<line x1="1102" y1="718.5" x2="1327" y2="718.5" stroke="#2562FF"/>
<line x1="1252.5" y1="619" x2="1252.5" y2="819" stroke="#2562FF"/>
</g>
<g opacity="0.1">
<line x1="-16" y1="18.5" x2="209" y2="18.5" stroke="#2562FF"/>
<line x1="134.5" y1="-81" x2="134.5" y2="119" stroke="#2562FF"/>
<line x1="-166" y1="118.5" x2="59" y2="118.5" stroke="#2562FF"/>
<line x1="-16" y1="218.5" x2="209" y2="218.5" stroke="#2562FF"/>
<line x1="134.5" y1="119" x2="134.5" y2="319" stroke="#2562FF"/>
<line x1="-166" y1="318.5" x2="59" y2="318.5" stroke="#2562FF"/>
<line x1="-16" y1="418.5" x2="209" y2="418.5" stroke="#2562FF"/>
<line x1="134.5" y1="319" x2="134.5" y2="519" stroke="#2562FF"/>
<line x1="-166" y1="518.5" x2="59" y2="518.5" stroke="#2562FF"/>
<line x1="-16" y1="618.5" x2="209" y2="618.5" stroke="#2562FF"/>
<line x1="134.5" y1="519" x2="134.5" y2="719" stroke="#2562FF"/>
<line x1="192" y1="18.5" x2="417" y2="18.5" stroke="#2562FF"/>
<line x1="342.5" y1="-81" x2="342.5" y2="119" stroke="#2562FF"/>
<line x1="342" y1="118.5" x2="567" y2="118.5" stroke="#2562FF"/>
<line x1="492.5" y1="19" x2="492.5" y2="219" stroke="#2562FF"/>
<line x1="192" y1="218.5" x2="417" y2="218.5" stroke="#2562FF"/>
<line x1="342.5" y1="119" x2="342.5" y2="319" stroke="#2562FF"/>
<line x1="342" y1="318.5" x2="567" y2="318.5" stroke="#2562FF"/>
<line x1="492.5" y1="219" x2="492.5" y2="419" stroke="#2562FF"/>
<line x1="192" y1="418.5" x2="417" y2="418.5" stroke="#2562FF"/>
<line x1="342.5" y1="319" x2="342.5" y2="519" stroke="#2562FF"/>
<line x1="342" y1="518.5" x2="567" y2="518.5" stroke="#2562FF"/>
<line x1="492.5" y1="419" x2="492.5" y2="619" stroke="#2562FF"/>
<line x1="192" y1="618.5" x2="417" y2="618.5" stroke="#2562FF"/>
<line x1="342.5" y1="519" x2="342.5" y2="719" stroke="#2562FF"/>
<line x1="342" y1="718.5" x2="567" y2="718.5" stroke="#2562FF"/>
<line x1="492.5" y1="619" x2="492.5" y2="819" stroke="#2562FF"/>
</g>
</g>
<defs>
<clipPath id="clip0_110_3101">
<rect width="1920" height="764" fill="white"/>
</clipPath>
</defs>
</svg>
