<svg width="69" height="33" viewBox="0 0 69 33" fill="none" xmlns="http://www.w3.org/2000/svg">
  <path fill-rule="evenodd" clip-rule="evenodd"
    d="M54.0346 29.58C58.3483 26.5735 62.53 23.1921 67.646 21.6691C67.9503 21.5774 68.1247 21.258 68.0348 20.9524C67.9431 20.6481 67.6238 20.4737 67.3181 20.5636C62.0828 22.1226 57.789 25.5576 53.3754 28.6345C53.1135 28.8152 53.0497 29.1763 53.2323 29.4368C53.4129 29.6987 53.7727 29.7607 54.0346 29.58Z"
    fill="#2562FF" />
  <path fill-rule="evenodd" clip-rule="evenodd"
    d="M49.14 23.7059C49.5696 21.5212 50.3437 19.5529 51.7558 17.8231C51.9576 17.5762 51.9202 17.2135 51.6749 17.0115C51.4278 16.811 51.0638 16.8485 50.8638 17.094C49.3282 18.9748 48.4778 21.108 48.0102 23.4825C47.948 23.7951 48.1507 24.0988 48.4639 24.1595C48.775 24.2214 49.0796 24.0171 49.14 23.7059Z"
    fill="#2562FF" />
  <path fill-rule="evenodd" clip-rule="evenodd"
    d="M35.7313 13.1291C34.814 10.6082 34.8156 8.10867 35.7838 5.59444C35.8978 5.29791 35.75 4.96391 35.4524 4.85038C35.1566 4.73549 34.8225 4.88393 34.7085 5.18047C33.6375 7.9636 33.6329 10.7317 34.6483 13.5229C34.7563 13.8221 35.0889 13.9755 35.3868 13.8673C35.6867 13.758 35.8411 13.4269 35.7313 13.1291Z"
    fill="#2562FF" />
  <path fill-rule="evenodd" clip-rule="evenodd"
    d="M12.7851 25.6232C12.7357 26.3119 12.7476 27.0062 12.8295 27.6946C12.8658 28.0012 12.988 28.6198 13.2441 29.0392C13.5155 29.4871 13.9189 29.7372 14.424 29.6542C15.0945 29.5437 15.4658 29.2316 15.6569 28.8609C15.8411 28.5043 15.8603 28.055 15.7251 27.5706C15.4663 26.6449 14.6124 25.5665 14.0054 25.0389C14.099 24.3598 14.2568 23.6905 14.4737 23.0393C16.0893 18.1892 21.6675 15.4495 28.0775 16.2285C30.3212 16.5017 32.8821 18.6531 35.2882 21.2361C39.0349 25.2576 42.3451 30.3906 43.3606 31.8609C43.6122 32.2234 43.8004 32.41 43.85 32.4385C44.0894 32.5818 44.2832 32.5226 44.4059 32.464C44.5825 32.3774 44.6852 32.2564 44.7474 32.1307C44.8307 31.9599 44.8501 31.7525 44.7599 31.5205C44.7093 31.393 44.6074 31.2385 44.4872 31.0824C44.4026 30.9749 44.292 30.8708 44.2564 30.7755C44.0304 30.1634 43.8428 29.5413 43.6489 28.9185C42.9929 26.8278 42.5814 24.7196 42.2529 22.5534C41.2087 15.6704 39.8725 8.56868 41.3619 1.64888C41.4286 1.33847 41.2316 1.03085 40.92 0.964466C40.6102 0.896714 40.3038 1.09458 40.2354 1.40654C38.7154 8.46393 40.0492 15.7066 41.1136 22.7262C41.3933 24.5687 41.7319 26.3709 42.2233 28.1553C40.4678 25.6488 37.9427 22.2488 35.2751 19.5584C32.9028 17.1655 30.3973 15.3508 28.2162 15.0851C21.1944 14.2315 15.149 17.363 13.3807 22.6752C13.1917 23.2436 13.0418 23.8263 12.9369 24.4159C8.45788 22.3495 3.30962 23.9805 0.884275 28.3188C0.728226 28.597 0.828277 28.9477 1.10524 29.1033C1.38407 29.2574 1.73459 29.1587 1.89064 28.8805C4.07623 24.9712 8.78366 23.577 12.7851 25.6232ZM13.9089 26.5906C13.9143 26.9136 13.9366 27.2362 13.9736 27.5594C13.9945 27.7321 14.048 28.0544 14.1665 28.3213C14.1949 28.3833 14.2549 28.469 14.2835 28.5081C14.4581 28.4772 14.5808 28.4341 14.6324 28.3331C14.6976 28.2076 14.6624 28.0505 14.6151 27.8808C14.497 27.4547 14.2137 26.9829 13.9089 26.5906Z"
    fill="#2562FF" />
</svg>
  