<svg width="174" height="21" viewBox="0 0 174 21" fill="none" xmlns="http://www.w3.org/2000/svg">
<path fill-rule="evenodd" clip-rule="evenodd" d="M64.3912 9.55592C63.3453 9.83977 62.3064 10.1373 61.2745 10.4494C60.8989 10.5629 60.687 10.9595 60.8001 11.3347L60.8058 11.3494C55.1477 11.7533 49.4937 12.2112 43.8454 12.7245C35.6861 13.4663 27.4854 14.4049 19.3794 15.6129C11.3687 16.8067 9.15473 17.122 2.29598 18.7655C2.09984 18.8125 1.71754 18.8309 1.51504 18.8995C1.32247 18.9647 1.18765 19.0674 1.10281 19.1655C0.994058 19.2898 0.93519 19.4294 0.915182 19.5798C0.894269 19.7437 0.913816 19.9415 1.06495 20.1554C1.49113 20.7558 2.13505 20.8921 2.90209 20.7192C3.56206 20.5704 4.3457 20.1269 4.97418 20.0471C15.4366 18.72 25.8875 17.3105 36.3518 15.9985C52.3715 13.9901 68.3751 12.5865 84.3927 11.3987C101.259 10.6353 118.141 10.3345 135.018 10.4618C146.009 10.5443 156.995 10.9551 167.983 11.24C167.978 11.2886 167.979 11.339 167.984 11.3901C168.029 11.7795 168.382 12.059 168.772 12.0141C169.166 11.9685 172.692 11.677 173.335 11.4812C173.703 11.3691 173.836 11.1309 173.879 11.0297C173.996 10.7522 173.988 10.4579 173.68 10.1934C173.619 10.1427 173.506 10.0597 173.305 10.0137C173.133 9.97314 172.71 9.93294 171.943 9.91626C159.639 9.63828 147.337 9.13461 135.029 9.04105C129.534 9.00037 124.038 9.00385 118.54 9.05546C125.979 8.55605 133.42 8.04341 140.87 7.47913C141.19 7.45577 141.343 7.39515 141.371 7.38127C141.771 7.18224 141.782 6.8571 141.765 6.67412C141.759 6.60878 141.675 6.07149 141.07 6.02815C140.716 6.00259 138.171 6.05337 137.19 6.05444C132.48 6.0553 132.592 6.08922 127.776 6.13059C117.185 6.22296 106.617 6.47512 96.0253 6.78993C91.8023 6.91561 87.5805 7.06135 83.3588 7.22921C95.4603 5.53599 107.871 4.90665 119.69 4.13911C125.787 3.74331 131.887 3.3854 137.991 3.13393C140.725 3.02139 143.461 2.95471 146.196 2.85585C147.045 2.82504 147.894 2.81421 148.743 2.78854C148.843 2.78538 150.159 2.72501 150.375 2.70863C150.939 2.66575 151.042 2.1554 151.046 2.13496C151.065 2.03894 151.122 1.35667 150.415 1.29019C140.19 0.329306 129.576 1.25863 119.317 1.56729C101.362 2.10743 83.3881 3.17325 65.4872 4.70088C57.5696 5.37649 49.6918 6.31829 41.7995 7.25828C37.8578 7.72778 33.9065 8.21313 30.0223 9.04866C29.6326 9.13258 28.7454 9.24517 28.3173 9.34284C28.0995 9.39266 27.9461 9.46096 27.8766 9.50567C27.572 9.69989 27.5235 9.96395 27.5283 10.147C27.5325 10.2841 27.5876 10.7648 28.2427 10.8771C37.6042 12.4847 47.7938 10.5717 57.1807 9.98363C59.5836 9.83306 61.9862 9.69068 64.3912 9.55592ZM72.2228 9.14454C69.4601 9.72107 66.7292 10.3759 64.0425 11.1246C70.7986 10.667 77.5591 10.2863 84.3264 9.98021C95.4732 9.15361 106.625 8.43123 117.79 7.68247C110.552 7.80786 103.315 7.99399 96.0672 8.20953C88.1178 8.44581 80.1684 8.7541 72.2228 9.14454ZM110.685 3.28846C95.6427 3.88133 80.5996 4.83634 65.6088 6.11568C57.7052 6.79017 49.8441 7.73026 41.9671 8.66847C38.8676 9.03763 35.7601 9.4157 32.6865 9.97083C40.7346 10.5227 49.2 9.06071 57.0925 8.56634C62.0769 8.25408 67.0658 7.97625 72.0548 7.7309C84.6332 5.12033 97.8656 4.11258 110.685 3.28846Z" fill="#316BFF"/>
</svg>
