<?xml version="1.0" encoding="UTF-8"?> <!-- Generator: Adobe Illustrator 23.0.1, SVG Export Plug-In . SVG Version: 6.00 Build 0) --> <svg xmlns="http://www.w3.org/2000/svg" xmlns:xlink="http://www.w3.org/1999/xlink" id="Livello_1" x="0px" y="0px" viewBox="0 0 666 329" style="enable-background:new 0 0 666 329;" xml:space="preserve"> <style type="text/css"> .st0{fill:#54565A;} .st1{fill:#A30C33;} </style> <g> <path class="st0" d="M183.73,224.11h-10.51c-0.55,0-1,0.45-1,1v28.68c0,0.55,0.45,1,1,1h2.18c0.55,0,1-0.45,1-1v-11.17h7.34 c5.78,0,9.66-3.72,9.66-9.26S189.51,224.11,183.73,224.11z M176.4,228.04h7.1c2.61,0,5.73,0.92,5.73,5.33s-3.11,5.33-5.73,5.33 h-7.1V228.04z"></path> <path class="st0" d="M236.82,241.22c3.86-1.14,6.12-4.21,6.12-8.42c0-5.28-3.62-8.69-9.22-8.69h-10.92c-0.55,0-1,0.45-1,1v28.68 c0,0.55,0.45,1,1,1h2.18c0.55,0,1-0.45,1-1v-12.21h6.29l6.57,12.67c0.17,0.33,0.51,0.54,0.89,0.54h2.54c0.35,0,0.67-0.18,0.86-0.48 c0.18-0.3,0.19-0.67,0.03-0.98L236.82,241.22z M225.98,228.04h7.46c1.99,0,5.32,0.62,5.32,4.8c0,4.18-3.34,4.8-5.32,4.8h-7.46 V228.04z"></path> <path class="st0" d="M282.15,223.87c-3,0-5.79,1.15-7.88,3.23c-2.95,2.95-2.95,5.9-2.95,12.35s0,9.4,2.95,12.35 c2.08,2.08,4.88,3.23,7.88,3.23c3,0,5.79-1.15,7.88-3.23c2.95-2.95,2.95-5.9,2.95-12.35s0-9.4-2.95-12.35 C287.94,225.02,285.14,223.87,282.15,223.87z M277.41,229.72c1.24-1.24,2.92-1.92,4.73-1.92s3.49,0.68,4.73,1.92 c1.73,1.73,1.92,3.5,1.92,9.73s-0.19,7.99-1.92,9.73c-1.24,1.24-2.92,1.92-4.73,1.92s-3.49-0.68-4.73-1.92 c-1.73-1.73-1.92-3.5-1.92-9.73S275.68,231.46,277.41,229.72z"></path> <path class="st0" d="M341.38,227.02c-1.91-1.91-4.63-2.91-7.88-2.91h-9.63c-0.55,0-1,0.45-1,1v28.68c0,0.55,0.45,1,1,1h9.63 c3.25,0,5.97-1.01,7.88-2.91c3.08-3.08,3.08-8.46,3.07-12.39v-0.89C344.46,234.82,344.47,230.1,341.38,227.02z M327.05,228.04h5.93 c2.41,0,4.19,0.63,5.45,1.91c0,0,0,0,0,0c1.87,1.9,1.86,5.56,1.85,8.5l0,0.59l0,0.59c0.01,2.95,0.02,7.4-1.85,9.3 c-1.26,1.29-3.04,1.91-5.45,1.91h-5.93V228.04z"></path> <path class="st0" d="M394.61,224.11h-2.18c-0.55,0-1,0.45-1,1v19.1c0,4.19-2.61,6.9-6.65,6.9s-6.65-2.71-6.65-6.9v-19.1 c0-0.55-0.45-1-1-1h-2.17c-0.55,0-1,0.45-1,1v19.38c0,6.11,4.55,10.55,10.83,10.55c6.28,0,10.83-4.44,10.83-10.55v-19.38 C395.61,224.56,395.17,224.11,394.61,224.11z"></path> <path class="st0" d="M442.79,224.11h-16.84c-0.55,0-1,0.45-1,1v1.93c0,0.55,0.45,1,1,1h12.71l-14.16,22.93 c-0.1,0.16-0.15,0.34-0.15,0.53v2.3c0,0.55,0.45,1,1,1h17.44c0.55,0,1-0.45,1-1v-1.93c0-0.55-0.45-1-1-1h-13.44l14.29-23.29 c0.1-0.16,0.15-0.34,0.15-0.52v-1.93C443.79,224.56,443.34,224.11,442.79,224.11z"></path> <path class="st0" d="M476.1,224.11h-2.18c-0.55,0-1,0.45-1,1v28.68c0,0.55,0.45,1,1,1h2.18c0.55,0,1-0.45,1-1v-28.68 C477.1,224.56,476.66,224.11,476.1,224.11z"></path> <path class="st0" d="M517.84,223.87c-3,0-5.79,1.15-7.88,3.23c-2.95,2.95-2.95,5.9-2.95,12.35s0,9.4,2.95,12.35 c2.08,2.08,4.88,3.23,7.88,3.23s5.79-1.15,7.88-3.23c2.95-2.95,2.95-5.9,2.95-12.35s0-9.4-2.95-12.35 C523.63,225.02,520.83,223.87,517.84,223.87z M513.1,229.72c1.24-1.24,2.92-1.92,4.73-1.92s3.49,0.68,4.73,1.92 c1.73,1.73,1.92,3.5,1.92,9.73s-0.19,7.99-1.92,9.73c-1.24,1.24-2.92,1.92-4.73,1.92s-3.49-0.68-4.73-1.92 c-1.73-1.74-1.92-3.5-1.92-9.73S511.37,231.46,513.1,229.72z"></path> <path class="st0" d="M580.48,224.11h-2.17c-0.55,0-1,0.45-1,1v21.55l-14.73-22.11c-0.19-0.28-0.5-0.45-0.83-0.45h-2.18 c-0.55,0-1,0.45-1,1v28.68c0,0.55,0.45,1,1,1h2.18c0.55,0,1-0.45,1-1v-21.62l14.72,22.18c0.19,0.28,0.5,0.45,0.83,0.45h2.17 c0.55,0,1-0.45,1-1v-28.68C581.48,224.56,581.03,224.11,580.48,224.11z"></path> <path class="st0" d="M615.68,224.11h-2.18c-0.55,0-1,0.45-1,1v28.68c0,0.55,0.45,1,1,1h2.18c0.55,0,1-0.45,1-1v-28.68 C616.68,224.56,616.23,224.11,615.68,224.11z"></path> </g> <path class="st1" d="M489.17,136.45c-4.53,0.53-35.25,10.65-37.36,11.49c-0.04-1.52-0.1-3.02-0.15-4.51 c-0.43-12.62-6.32-16.88-6.32-16.88c-6.06-3.76-11.45-2.95-16.66,0.71c-0.26,0.11-0.51,0.28-0.72,0.53 c-0.23,0.17-0.46,0.34-0.69,0.52c-0.62,0.5-4.65,5.77-4.65,5.77c-10.45,11.66-24.27,26.89-36.57,36.65 c0.78-4.1,1.71-6.24,1.08-11.19c-0.97-7.63-3.34-12.1-9.28-19.38c-18.33-20.67-13.52-24.66-3.83-42.83 c6.79-12.73,22.64-34.79,34-45.5c10.39-9.8-0.52-20.34-10.44-18.8c-6.89,1.07-8.52,10.67-31.1,51.79 c-9.2,16.75-16.58,32.39-24.12,48.95c-0.52,1.15-1.04,2.3-1.56,3.46c-1.46,3.28-2.86,6.59-4.1,9.96 c-5.22,12.47-13.85,29.46-19.62,39.8c-3.01,5.04-6.81,10.48-9.17,10.05c-0.64-0.12-1.11-0.48-1.42-1.11 c-3.42-6.78,11.34-37.29,11.5-37.62c4.32-10.14,5.84-14.53,0-21.23c-2.66-3.03-6.14-4.4-9.5-5.72c-0.48-0.19-1.24-0.47-2.2-0.82 c-3.58-1.48-7.31-3.21-10.33-5.77c-0.5-0.42-1.01-0.88-1.54-1.35c-3.2-2.83-6.82-6.04-11.12-6.11c-1.72-0.01-2.88,0.88-3.29,2.63 c-0.65,2.72,0.48,7.03,1.39,10.49c0.43,1.63,0.8,3.03,0.83,3.77c0.22,4.52-1.6,8.87-3.33,12.58c-0.22,0.47-0.49,1.08-0.82,1.8 c-3.4,7.5-13.74,30.32-22.69,32.21c-1.78,0.38-3.38-0.09-4.89-1.44c-1.95-1.74-2.89-5.16-2.62-9.39c0.47-7.36,4.11-13.26,6.28-19.37 c0.64-1.43,1.23-2.94,1.77-4.53c3.59-10.59,8.33-23.04,0.59-25.81c-3.19-1.14-5.93,1.34-8.32,5.42c-5.29-5.78-10.88-7.07-18.81-5.81 c-7.12,1.13-14.55,5.7-24.32,12.53c-4.67,3.26-26.23,19.63-48.77,36.78c0.19-0.88,0.35-1.73,0.51-2.62c0.28-1.48,0.56-3.01,1-4.74 c0.3-1.18,0.59-2.38,0.85-3.57c8.75-5.3,12.7-9.98,11.13-13.18c-0.75-1.52-2.95-3.02-9.2-1.72c0.2-13.42-4.88-19.61-9.22-22.45 c-6.47-4.24-14.79-3.58-20.17-1.06c-14.48,6.8-55.14,40.82-64.16,65.48c-2.78,7.6-0.8,11.46,1.36,13.36 c4.4,3.87,12.9,2.79,18.66-0.19c4.06-2.1,11.2-6.73,18.76-11.63c12.29-7.97,26.23-16.99,30.6-17.59c1.67-0.23,2.73-0.06,2.97,0.46 c1.46,3.17-15.54,18.39-31.97,33.12c-20.01,17.93-42.7,38.25-49.65,50.94c-10.42,19.03-8,29.27-4.13,34.51 c4.27,5.78,11.67,7.84,18.94,7.84c2.88,0,5.74-0.32,8.37-0.87c29.47-6.07,53.38-58.75,60.01-74.75c4.05-9.77,9.81-30.46,10.41-32.63 l16.27-11.37c-1.51,5.4-0.88,10.78,1.79,14.62c2.52,3.63,6.87,4.49,13.3,2.61c4.98-1.45,11.82-6.6,19.05-12.05 c11.17-8.41,22.73-17.12,27.29-11.95c1.13,1.28,1.85,3.21,2.54,5.08c0.27,0.74,0.54,1.45,0.82,2.1c3.55,8.18,9.61,14.01,16.61,15.99 c9.9,2.79,18.67-6.07,21.98-10.01c10.79-12.84,19.45-27.41,25.06-42.16c0.47,0.28,1.03,0.54,1.61,0.81c1.79,0.85,3.82,1.81,4.6,3.6 c2.28,5.24-3.56,17.23-7.83,25.99c-1.83,3.76-3.41,7-4.03,9.04c-3.61,11.87-1.36,22.81,6.19,30.03c2.44,2.33,5.37,3.75,8.69,4.21 c0.63,0.09,1.28,0.13,1.92,0.13c6.15,0,12.74-4.49,18.17-12.05c0.16-0.22,0.3-0.43,0.45-0.64c0.03-0.04,0.06-0.08,0.09-0.13 c4.44-6.39,5.43-10.46,8-15.91c-0.09,0.18,0.3,0.98,0.36,1.19c0.13,0.41,6.76,11.83,12.95,14.71c25.75,12,62.57-39.44,63.82-40.72 c-0.37,4.52-11.95,19.68-10.07,30.47c1.23,7.11,9.18,13.78,18.03,13.38c5.82-0.26,11.2-3.26,15.72-6.95 c5.32-4.35,9.8-9.81,12.6-16.09c2.64-5.91,3.82-12.35,4.29-18.89c4.31-1.7,7.99-3.58,12.68-5.55c15.34-6.42,21.85-7.65,29.7-14 C497.96,140.23,496.98,135.54,489.17,136.45z M111.62,241.41c-9.98,16.26-25.13,35.86-40.61,36.88c-1.27,0.08-2.12-0.52-2.54-1.8 c-2.6-7.88,11.53-39.76,61.7-72.35C128.53,209,121.32,225.62,111.62,241.41z M140.67,149.89c-2.43,1.94-6.61,4.27-12.4,7.49 c-5.81,3.24-13.05,7.26-21.9,12.76c-11.44,7.1-14.56,6.84-15.37,6.39c-0.2-0.11-0.48-0.33-0.48-0.98 c-0.08-5.6,17.92-25.48,38.58-37.57c1.7-0.99,3.3-1.41,4.77-1.41c3.12,0,5.63,1.87,7.1,4.01 C142.97,143.49,143.5,147.62,140.67,149.89z M230.98,149.26c-1.93,1.54-5.25,3.4-9.85,5.96c-4.62,2.57-10.38,5.78-17.41,10.14 c-9.09,5.65-11.58,5.44-12.22,5.08c-0.16-0.09-0.38-0.27-0.39-0.78c-0.06-4.45,14.25-20.26,30.67-29.87 c1.35-0.79,2.62-1.12,3.79-1.12c2.48,0,4.48,1.49,5.64,3.19C232.8,144.17,233.23,147.45,230.98,149.26z M348.69,171.24 c-0.02-3.24,0.35-6.76,1.11-10.57c0.76-3.81,2.59-7.55,5.5-11.22c2.9-3.67,5.81-3.37,8.71,0.91c2.91,4.16,5.05,8.39,6.42,12.68 c1.37,4.29,1.52,8.13,0.45,11.52c-1.07,3.4-2.76,6.24-5.07,8.53c-2.31,2.29-4.99,3.4-8.05,3.31c-3.06-0.08-5.33-1.82-6.82-5.21 C349.46,177.79,348.71,174.47,348.69,171.24z M432.03,182.08c-4.04,8.15-15.42,10.11-15.8-1.83c-0.15-4.76,2.36-13.37,5.85-19.25 c0.51,1.58,1.4,2.95,2.66,3.9c0.29,0.28,1.26,0.82,1.64,1.03c1.68,0.91,4.19,1.78,8.35,1.51 C434.42,173.55,433.1,179.92,432.03,182.08z"></path> </svg> 