<svg width="45" height="34" viewBox="0 0 45 34" fill="none" xmlns="http://www.w3.org/2000/svg">
  <g opacity="0.6">
    <path
      d="M44.8548 0.822701L42.7416 12.8982C42.2385 15.7158 41.6347 18.2316 40.9303 20.4454C40.1253 22.7599 38.968 24.9737 37.4586 27.0869C35.9491 29.2002 33.8862 31.3134 31.2699 33.4266L26.2887 28.1435C29.207 25.4266 31.2196 23.0115 32.3265 20.8982C33.3328 18.785 34.0875 16.3699 34.5906 13.6529L37.9114 16.219H26.8925L29.3076 0.822701H44.8548ZM19.4963 0.822701L17.383 12.8982C16.8799 15.7158 16.2761 18.2316 15.5717 20.4454C14.7667 22.7599 13.6094 24.9737 12.1 27.0869C10.5906 29.2002 8.52766 31.3134 5.9113 33.4266L0.930152 28.1435C3.8484 25.4266 5.86099 23.0115 6.96791 20.8982C7.9742 18.785 8.72892 16.3699 9.23207 13.6529L12.5528 16.219H1.53393L3.94903 0.822701H19.4963Z"
      fill="#2562FF" />
  </g>
</svg>
  