<?xml version="1.0" encoding="UTF-8"?>
<svg id="Capa_1" xmlns="http://www.w3.org/2000/svg" version="1.1" viewBox="0 0 925.1 925.1">
  <!-- Generator: Adobe Illustrator 29.5.0, SVG Export Plug-In . SVG Version: 2.1.0 Build 137)  -->
  <path d="M721.2,711.4h62.9c27.9,47.4,78.8,76.4,133.7,76.4h7.3v-268h-7.3c-55,0-105.8,29.1-133.7,76.4h-62.9v115.2h0Z"/>
  <path d="M120.4,423.4h565.9v460.8H120.4c-41.7,0-75.6-33.9-75.6-75.6v-309.6c0-41.7,33.9-75.6,75.6-75.6h0Z"/>
  <path d="M543.7,388.3c8.5.7,17,.7,25.3.1,90.2-6.5,161.3-81.7,161.3-173.5s-77.9-174-174-174-165.6,69.8-173.3,158.8c-.9,10.1-.9,20.2,0,30.3,4.9,56.6,38.2,108.3,87.6,136.3,21.8,12.4,47.5,20,73,22h.1ZM556.4,139.7c41.6,0,75.3,33.7,75.3,75.3s-33.7,75.3-75.3,75.3-75.3-33.7-75.3-75.3,33.7-75.3,75.3-75.3h0Z"/>
  <path d="M161.3,388.3c8.5.7,17,.7,25.3.1,90.2-6.5,161.3-81.7,161.3-173.5S270.1,40.9,174,40.9,8.3,110.8.7,199.8c-.9,10.1-.9,20.2,0,30.3,4.9,56.6,38.2,108.3,87.6,136.3,21.8,12.4,47.5,20,73,22h0ZM174,139.7c41.6,0,75.3,33.7,75.3,75.3s-33.7,75.3-75.3,75.3-75.3-33.7-75.3-75.3,33.7-75.3,75.3-75.3h0Z"/>
</svg>