<?xml version="1.0" encoding="UTF-8"?>
<svg id="Capa_1" xmlns="http://www.w3.org/2000/svg" version="1.1" viewBox="0 0 925.1 925.1">
  <!-- Generator: Adobe Illustrator 29.5.0, SVG Export Plug-In . SVG Version: 2.1.0 Build 137)  -->
  <path d="M776.9,138.8C693.1,54.8,581.6,8.6,462.9,8.6,218.1,8.6,19,207.7,18.9,452.5c0,78.3,20.4,154.6,59.3,222l-63,230,235.3-61.7c64.8,35.4,137.9,54,212.2,54.1h.2c244.7,0,443.9-199.2,444-444,0-118.6-46.1-230.2-129.9-314.1ZM462.9,821.9h-.1c-66.2,0-131.2-17.8-187.8-51.4l-13.5-8-139.7,36.6,37.3-136.2-8.8-14c-37-58.8-56.4-126.7-56.4-196.4,0-203.5,165.6-369,369.2-369s191.2,38.5,260.9,108.2c69.7,69.8,108,162.5,108,261.1-.1,203.5-165.6,369.1-369,369.1ZM665.3,545.5c-11.1-5.6-65.6-32.4-75.8-36.1-10.2-3.7-17.5-5.6-25,5.5-7.4,11.1-28.6,36.1-35.1,43.5-6.5,7.4-13,8.3-24,2.8-11.1-5.6-46.9-17.2-89.2-55.1-33-29.4-55.3-65.7-61.7-76.9s-.7-17.1,4.9-22.6c5-5,11.1-13,16.7-19.5,5.6-6.4,7.4-11.1,11.2-18.5,3.7-7.4,1.9-13.9-.9-19.5-2.8-5.5-25-60.1-34.2-82.4-9-21.7-18.1-18.7-25-19-6.5-.3-13.9-.4-21.3-.4s-19.4,2.8-29.6,13.9c-10.2,11.1-38.8,38-38.8,92.5s39.8,107.4,45.3,114.8,78.2,119.5,189.5,167.5c26.5,11.4,47.2,18.3,63.2,23.4,26.6,8.4,50.8,7.2,69.9,4.4,21.3-3.2,65.6-26.8,74.9-52.8,9.3-25.9,9.3-48.2,6.5-52.8-2.8-4.7-10.2-7.4-21.2-13Z"/>
</svg>