<svg width="287" height="90" viewBox="0 0 287 90" fill="none" xmlns="http://www.w3.org/2000/svg">
  <rect opacity="0.2" x="135.742" y="61.7988" width="112.233" height="9.82043" fill="white" />
  <g opacity="0.5">
    <line y1="-0.0935279" x2="42.0876" y2="-0.0935279"
      transform="matrix(-1 8.74228e-08 8.74228e-08 1 65.5977 13.6357)" stroke="white"
      stroke-width="0.187056" />
    <line y1="-0.0935279" x2="37.4112" y2="-0.0935279"
      transform="matrix(4.37114e-08 1 1 -4.37114e-08 37.5391 -5.07031)" stroke="white"
      stroke-width="0.187056" />
    <line y1="-0.0935279" x2="42.0876" y2="-0.0935279"
      transform="matrix(-1 8.74228e-08 8.74228e-08 1 37.5391 32.3398)" stroke="white"
      stroke-width="0.187056" />
    <line y1="-0.0935279" x2="37.4112" y2="-0.0935279"
      transform="matrix(4.37114e-08 1 1 -4.37114e-08 9.48047 13.6338)" stroke="white"
      stroke-width="0.187056" />
    <line y1="-0.0935279" x2="42.0876" y2="-0.0935279"
      transform="matrix(-1 8.74228e-08 8.74228e-08 1 65.5977 51.0469)" stroke="white"
      stroke-width="0.187056" />
    <line y1="-0.0935279" x2="37.4112" y2="-0.0935279"
      transform="matrix(4.37114e-08 1 1 -4.37114e-08 37.5391 32.3408)" stroke="white"
      stroke-width="0.187056" />
    <line y1="-0.0935279" x2="42.0876" y2="-0.0935279"
      transform="matrix(-1 8.74228e-08 8.74228e-08 1 37.5391 69.752)" stroke="white"
      stroke-width="0.187056" />
    <line y1="-0.0935279" x2="37.4112" y2="-0.0935279"
      transform="matrix(4.37114e-08 1 1 -4.37114e-08 9.48047 51.0459)" stroke="white"
      stroke-width="0.187056" />
    <line y1="-0.0935279" x2="42.0876" y2="-0.0935279"
      transform="matrix(-1 8.74228e-08 8.74228e-08 1 65.5977 88.4561)" stroke="white"
      stroke-width="0.187056" />
    <line y1="-0.0935279" x2="37.4112" y2="-0.0935279"
      transform="matrix(4.37114e-08 1 1 -4.37114e-08 37.5391 69.75)" stroke="white"
      stroke-width="0.187056" />
    <line y1="-0.0935279" x2="37.4112" y2="-0.0935279"
      transform="matrix(4.37114e-08 1 1 -4.37114e-08 9.48047 88.4561)" stroke="white"
      stroke-width="0.187056" />
  </g>
  <g opacity="0.5">
    <line y1="-0.0935279" x2="42.0876" y2="-0.0935279"
      transform="matrix(-7.54979e-08 -1 -1 7.54979e-08 266.688 117.915)" stroke="white"
      stroke-width="0.187056" />
    <line y1="-0.0935279" x2="37.4112" y2="-0.0935279"
      transform="matrix(-1 3.17865e-08 3.17865e-08 1 285.391 89.8564)" stroke="white"
      stroke-width="0.187056" />
    <line y1="-0.0935279" x2="42.0876" y2="-0.0935279"
      transform="matrix(-7.54979e-08 -1 -1 7.54979e-08 247.984 89.8564)" stroke="white"
      stroke-width="0.187056" />
    <line y1="-0.0935279" x2="37.4112" y2="-0.0935279"
      transform="matrix(-1 3.17865e-08 3.17865e-08 1 266.688 61.7979)" stroke="white"
      stroke-width="0.187056" />
    <line y1="-0.0935279" x2="42.0876" y2="-0.0935279"
      transform="matrix(-7.54979e-08 -1 -1 7.54979e-08 229.273 117.915)" stroke="white"
      stroke-width="0.187056" />
    <line y1="-0.0935279" x2="37.4112" y2="-0.0935279"
      transform="matrix(-1 3.17865e-08 3.17865e-08 1 247.977 89.8564)" stroke="white"
      stroke-width="0.187056" />
    <line y1="-0.0935279" x2="42.0876" y2="-0.0935279"
      transform="matrix(-7.54979e-08 -1 -1 7.54979e-08 210.57 89.8564)" stroke="white"
      stroke-width="0.187056" />
    <line y1="-0.0935279" x2="37.4112" y2="-0.0935279"
      transform="matrix(-1 3.17865e-08 3.17865e-08 1 229.273 61.7979)" stroke="white"
      stroke-width="0.187056" />
    <line y1="-0.0935279" x2="42.0876" y2="-0.0935279"
      transform="matrix(-7.54979e-08 -1 -1 7.54979e-08 191.867 117.915)" stroke="white"
      stroke-width="0.187056" />
    <line y1="-0.0935279" x2="37.4112" y2="-0.0935279"
      transform="matrix(-1 3.17865e-08 3.17865e-08 1 210.57 89.8564)" stroke="white"
      stroke-width="0.187056" />
    <line y1="-0.0935279" x2="42.0876" y2="-0.0935279"
      transform="matrix(-7.54979e-08 -1 -1 7.54979e-08 173.156 89.8564)" stroke="white"
      stroke-width="0.187056" />
    <line y1="-0.0935279" x2="37.4112" y2="-0.0935279"
      transform="matrix(-1 3.17865e-08 3.17865e-08 1 191.863 61.7979)" stroke="white"
      stroke-width="0.187056" />
    <line y1="-0.0935279" x2="42.0876" y2="-0.0935279"
      transform="matrix(-7.54979e-08 -1 -1 7.54979e-08 154.453 117.915)" stroke="white"
      stroke-width="0.187056" />
    <line y1="-0.0935279" x2="37.4112" y2="-0.0935279"
      transform="matrix(-1 3.17865e-08 3.17865e-08 1 173.156 89.8564)" stroke="white"
      stroke-width="0.187056" />
    <line y1="-0.0935279" x2="42.0876" y2="-0.0935279"
      transform="matrix(-7.54979e-08 -1 -1 7.54979e-08 135.75 89.8564)" stroke="white"
      stroke-width="0.187056" />
    <line y1="-0.0935279" x2="37.4112" y2="-0.0935279"
      transform="matrix(-1 3.17865e-08 3.17865e-08 1 154.453 61.7979)" stroke="white"
      stroke-width="0.187056" />
  </g>
</svg>
  