<?xml version="1.0" encoding="UTF-8" standalone="no"?>
<!DOCTYPE svg PUBLIC "-//W3C//DTD SVG 1.1//EN" "http://www.w3.org/Graphics/SVG/1.1/DTD/svg11.dtd">
<svg width="100%" height="100%" viewBox="0 0 350 350" version="1.1" xmlns="http://www.w3.org/2000/svg" xmlns:xlink="http://www.w3.org/1999/xlink" xml:space="preserve" xmlns:serif="http://www.serif.com/" style="fill-rule:evenodd;clip-rule:evenodd;stroke-linejoin:round;stroke-miterlimit:2;">
    <g transform="matrix(1,0,0,1,4,61.5)">
        <g transform="matrix(1.147773,0,0,1.856086,-14.365412,-75.820762)">
            <rect x="7" y="6" width="309" height="192"/>
        </g>
        <g transform="matrix(0.832778,0,0,0.832778,28.632103,18.979675)">
            <g>
                <g transform="matrix(0.148837,0,0,0.148837,119.582422,71.660717)">
                    <path d="M0,564.469L-78.44,480.401L-184.332,368.778L-224.027,416.739L-380.248,606.469L-424.09,658.173L-532.792,491.285L-742.849,711.438C-759.402,728.787 -774.914,743.509 -789.895,761.77C-792.272,753.563 -784.181,753.416 -781.218,747.676C-694.46,633.656 -612.854,517.517 -532.31,398.389L-422.962,537.356L-265.64,326.049L-182.972,213.959L-21.621,383.71L81.856,209.735L329.223,-218.032L498.195,63.47L759.256,481.626L1043.114,248.159L1170.442,404.818L1456.127,748.902C1465.449,760.659 1473.15,770.23 1484.239,779.615C1476.411,782.501 1476.908,774.816 1472.907,770.994L1150.915,463.468L1037.332,356.512L865.241,516.232L739.136,633.551L436.891,171.995L332.698,11.951L235.487,173.399L0,564.469Z" style="fill:white;fill-rule:nonzero;"/>
                </g>
            </g>
        </g>
    </g>
</svg>
