<?xml version="1.0" encoding="UTF-8"?>
<svg id="Layer_1" xmlns="http://www.w3.org/2000/svg" version="1.1" viewBox="0 0 1100.5 129.6">
  <!-- Generator: Adobe Illustrator 29.5.0, SVG Export Plug-In . SVG Version: 2.1.0 Build 137)  -->
  <defs>
    <style>
      .st0 {
        fill: #fff;
      }
    </style>
  </defs>
  <path class="st0" d="M141.2,32.7v75.1h-20.9v-41.4l-14.2,41.4h-17.5l-14.3-41.7v41.7h-20.9V32.7h25.2l18.8,48.8,18.4-48.8h25.4Z"/>
  <path class="st0" d="M153.1,61.7c2.2-4.6,5.3-8.2,9.2-10.6,3.9-2.5,8.2-3.7,12.9-3.7s7.7.8,10.6,2.4c3,1.6,5.3,3.8,6.9,6.6v-8.3h20.9v59.7h-20.9v-8.3c-1.6,2.8-4,5-7,6.6s-6.5,2.4-10.6,2.4-9.1-1.2-12.9-3.7c-3.9-2.5-6.9-6.1-9.2-10.7-2.2-4.6-3.4-10.1-3.4-16.2s1.1-11.6,3.4-16.2h.1ZM189.6,68.8c-2.1-2.2-4.7-3.3-7.7-3.3s-5.7,1.1-7.8,3.2c-2.1,2.2-3.1,5.2-3.1,9.1s1,6.9,3.1,9.1,4.6,3.4,7.8,3.4,5.6-1.1,7.7-3.3c2.1-2.2,3.1-5.3,3.1-9.2s-1-6.8-3.1-9.1h0Z"/>
  <path class="st0" d="M254.9,50.5c3.3-2,6.9-3,10.8-3v22.3h-5.9c-4.5,0-7.9.9-10.1,2.7-2.2,1.8-3.3,4.9-3.3,9.3v26.1h-20.9v-59.7h20.9v10.5c2.3-3.4,5.2-6.1,8.5-8.1h0Z"/>
  <path class="st0" d="M301.8,88.1l11.2-40h22.3l-20.5,59.7h-26l-20.5-59.7h22.3l11.4,40h-.2Z"/>
  <path class="st0" d="M343.9,39.5c-2.2-2-3.4-4.6-3.4-7.6s1.1-5.7,3.4-7.8c2.2-2.1,5.2-3.1,8.9-3.1s6.5,1,8.8,3.1c2.2,2.1,3.4,4.6,3.4,7.8s-1.1,5.6-3.4,7.6c-2.2,2-5.2,3-8.8,3s-6.7-1-8.9-3ZM363.1,48v59.7h-20.9v-59.7s20.9,0,20.9,0Z"/>
  <path class="st0" d="M430.5,54.4c4,4.6,6.1,10.8,6.1,18.6v34.8h-20.9v-32c0-3.4-.9-6.1-2.7-8-1.8-2-4.2-2.9-7.1-2.9s-5.6,1-7.3,2.9c-1.8,2-2.7,4.6-2.7,8v32h-20.9v-59.7h20.9v8.5c1.8-2.7,4.3-4.9,7.5-6.5,3.1-1.7,6.7-2.5,10.8-2.5,6.9,0,12.4,2.3,16.4,6.9h0Z"/>
  <path class="st0" d="M498.5,37.4c5.9,3.2,10.5,7.6,13.7,13.3s4.8,12.2,4.8,19.5-1.6,13.7-4.8,19.4c-3.2,5.7-7.8,10.1-13.7,13.4-5.9,3.2-12.8,4.8-20.6,4.8h-29.7V32.7h29.7c7.9,0,14.8,1.6,20.7,4.7h-.1ZM490.6,84.3c3.5-3.3,5.2-8.1,5.2-14.2s-1.7-10.9-5.2-14.3c-3.5-3.4-8.3-5.1-14.4-5.1h-7.2v38.5h7.2c6.1,0,10.9-1.7,14.4-5h0Z"/>
  <path class="st0" d="M555.7,50.5c3.3-2,6.9-3,10.8-3v22.3h-5.9c-4.5,0-7.9.9-10.1,2.7-2.2,1.8-3.3,4.9-3.3,9.3v26.1h-20.9v-59.7h20.9v10.5c2.3-3.4,5.2-6.1,8.5-8.1h0Z"/>
  <path class="st0" d="M585.7,104.8c-4.7-2.5-8.4-6-11.1-10.6-2.7-4.6-4-10-4-16.3s1.4-11.6,4.1-16.2c2.7-4.6,6.5-8.2,11.2-10.6,4.7-2.5,10.1-3.7,16-3.7s11.3,1.2,16,3.7,8.4,6,11.2,10.6c2.7,4.6,4.1,10,4.1,16.2s-1.4,11.6-4.1,16.2c-2.7,4.6-6.5,8.2-11.2,10.7-4.8,2.5-10.1,3.7-16.1,3.7s-11.3-1.2-16-3.7h-.1ZM609,87.2c2-2.2,2.9-5.3,2.9-9.3s-1-7.1-2.9-9.3c-2-2.1-4.3-3.2-7.2-3.2s-5.2,1.1-7.1,3.2c-1.9,2.1-2.9,5.2-2.9,9.3s.9,7.2,2.8,9.4c1.8,2.1,4.2,3.2,7.1,3.2s5.3-1.1,7.3-3.2h0Z"/>
  <path class="st0" d="M697.1,54.4c4,4.6,6.1,10.8,6.1,18.6v34.8h-20.9v-32c0-3.4-.9-6.1-2.7-8-1.8-2-4.2-2.9-7.1-2.9s-5.6,1-7.3,2.9c-1.8,2-2.7,4.6-2.7,8v32h-20.9v-59.7h20.9v8.5c1.8-2.7,4.3-4.9,7.5-6.5,3.1-1.7,6.7-2.5,10.8-2.5,6.9,0,12.4,2.3,16.4,6.9h0Z"/>
  <path class="st0" d="M771.4,82.1h-39.5c.2,3.3,1.1,5.7,2.7,7.3,1.6,1.6,3.6,2.4,6.1,2.4s6-1.6,7.5-4.7h22.3c-.9,4.1-2.7,7.8-5.4,11s-6,5.8-10.1,7.6c-4,1.8-8.5,2.8-13.4,2.8s-11.1-1.2-15.7-3.7c-4.6-2.5-8.2-6-10.8-10.6s-3.9-10-3.9-16.3,1.3-11.7,3.8-16.2c2.6-4.6,6.1-8.1,10.7-10.6,4.6-2.5,9.8-3.7,15.8-3.7s11.1,1.2,15.7,3.6c4.5,2.4,8.1,5.9,10.6,10.4,2.6,4.5,3.8,9.8,3.8,15.9s0,3.3-.3,4.9h.1ZM750.4,72c0-2.6-.9-4.6-2.6-6-1.7-1.5-3.8-2.2-6.4-2.2s-4.6.7-6.3,2.1c-1.6,1.4-2.7,3.4-3.2,6.1h18.5Z"/>
  <path class="st0" d="M781.5,105.6c-2.2-2-3.4-4.6-3.4-7.7s1.1-5.7,3.4-7.8c2.2-2.1,5.2-3.1,8.9-3.1s6.5,1,8.8,3.1c2.2,2.1,3.4,4.6,3.4,7.8s-1.1,5.6-3.4,7.7c-2.2,2.1-5.2,3.1-8.8,3.1s-6.7-1-8.9-3h0Z"/>
  <path class="st0" d="M812.7,61.7c2.6-4.6,6.1-8.2,10.7-10.6,4.6-2.5,9.8-3.7,15.7-3.7s14,2.1,19.2,6.2c5.2,4.2,8.5,10,10,17.4h-22.1c-1.3-3.9-3.8-5.9-7.5-5.9s-4.7,1.1-6.2,3.2c-1.5,2.2-2.3,5.3-2.3,9.5s.8,7.4,2.3,9.6,3.6,3.3,6.2,3.3c3.8,0,6.2-2,7.5-5.9h22.1c-1.5,7.4-4.8,13.2-10,17.4-5.2,4.2-11.6,6.3-19.2,6.3s-11.1-1.2-15.7-3.7-8.1-6-10.7-10.6c-2.6-4.6-3.8-10-3.8-16.3s1.3-11.6,3.8-16.2Z"/>
  <path class="st0" d="M888.7,104.8c-4.7-2.5-8.4-6-11.1-10.6-2.7-4.6-4-10-4-16.3s1.4-11.6,4.1-16.2c2.7-4.6,6.5-8.2,11.2-10.6,4.7-2.5,10.1-3.7,16-3.7s11.3,1.2,16,3.7,8.4,6,11.2,10.6c2.7,4.6,4.1,10,4.1,16.2s-1.4,11.6-4.1,16.2c-2.7,4.6-6.5,8.2-11.2,10.7-4.8,2.5-10.1,3.7-16.1,3.7s-11.3-1.2-16-3.7h-.1ZM912,87.2c2-2.2,2.9-5.3,2.9-9.3s-1-7.1-2.9-9.3c-2-2.1-4.3-3.2-7.2-3.2s-5.2,1.1-7.1,3.2c-1.9,2.1-2.9,5.2-2.9,9.3s.9,7.2,2.8,9.4c1.8,2.1,4.2,3.2,7.1,3.2s5.3-1.1,7.3-3.2h0Z"/>
  <path class="st0" d="M1040.4,54.3c4.3,4.5,6.4,10.8,6.4,18.6v34.8h-20.9v-32c0-3.2-.9-5.7-2.7-7.5s-4.2-2.7-7.2-2.7-5.5.9-7.2,2.7c-1.8,1.8-2.7,4.3-2.7,7.5v32h-20.9v-32c0-3.2-.9-5.7-2.6-7.5-1.7-1.8-4.1-2.7-7.2-2.7s-5.6.9-7.3,2.7c-1.8,1.8-2.7,4.3-2.7,7.5v32h-20.9v-59.7h20.9v7.9c1.8-2.6,4.2-4.6,7.2-6.1,2.9-1.5,6.3-2.3,10.2-2.3s8.3,1,11.8,2.9c3.4,1.9,6.2,4.6,8.1,8.1,2.1-3.3,4.9-5.9,8.4-7.9s7.3-3,11.5-3c7.5,0,13.4,2.3,17.7,6.8h.1Z"/>
</svg>