<?xml version="1.0" encoding="UTF-8" standalone="no"?>
<!DOCTYPE svg PUBLIC "-//W3C//DTD SVG 1.1//EN" "http://www.w3.org/Graphics/SVG/1.1/DTD/svg11.dtd">
<svg width="100%" height="100%" viewBox="0 0 342 227" version="1.1" xmlns="http://www.w3.org/2000/svg" xmlns:xlink="http://www.w3.org/1999/xlink" xml:space="preserve" xmlns:serif="http://www.serif.com/" style="fill-rule:evenodd;clip-rule:evenodd;stroke-linejoin:round;stroke-miterlimit:2;">
    <g>
        <g>
            <g>
                <g transform="matrix(0.093114,0,0,0.093114,138.915797,58.92017)">
                    <path d="M0,564.469L-78.44,480.401L-184.332,368.778L-224.027,416.739L-380.248,606.469L-424.09,658.173L-532.792,491.285L-742.849,711.438C-759.402,728.787 -774.914,743.509 -789.895,761.77C-792.272,753.563 -784.181,753.416 -781.218,747.676C-694.46,633.656 -612.854,517.517 -532.31,398.389L-422.962,537.356L-265.64,326.049L-182.972,213.959L-21.621,383.71L81.856,209.735L329.223,-218.032L498.195,63.47L759.256,481.626L1043.114,248.159L1170.442,404.818L1456.127,748.902C1465.449,760.659 1473.15,770.23 1484.239,779.615C1476.411,782.501 1476.908,774.816 1472.907,770.994L1150.915,463.468L1037.332,356.512L865.241,516.232L739.136,633.551L436.891,171.995L332.698,11.951L235.487,173.399L0,564.469Z" style="fill:currentColor;fill-rule:nonzero;"/>
                </g>
                <g transform="matrix(0.093114,0,0,0.093114,103.218858,167.148567)">
                    <path d="M0,-266.841L0.338,16.299L37.607,16.255L37.269,-266.885L0,-266.841ZM-139.629,-67.646L-209.372,-266.299C-223.152,-266.444 -235.393,-267.297 -248.98,-265.576L-140.103,31.319L-69.995,-160.347L-30.005,-266.275C-44.183,-266.488 -55.828,-267.252 -69.005,-265.962L-139.629,-67.646ZM1486.523,-153.255L1392.503,-154.353L1393.138,-227.502L1488.778,-228.218L1489.176,-266.437L1355.533,-266.403L1356.126,15.875L1489.057,15.632L1489.234,-21.593L1392.947,-22.446L1393.069,-115.695L1486.68,-116.689C1487.23,-129.33 1487.53,-141.251 1486.523,-153.255M-590.282,-90.744L-551.534,-196.403L-513.404,-90.882L-590.282,-90.744ZM-474.438,15.435L-435.348,16.026L-461.585,-54.934L-551.586,-289.969L-586.371,-197.734L-668.159,15.621C-654.036,16.356 -641.926,16.792 -629.169,14.753L-603.598,-52.93L-498.413,-52.822L-474.438,15.435ZM-365.232,-134.306L-365.574,-228.265C-353.332,-230.132 -341.504,-228.629 -330.411,-224.623C-310.754,-217.522 -299.584,-199.198 -301.708,-177.119C-305.24,-140.393 -331.99,-131.825 -365.232,-134.306M-321.124,-103.429C-276.446,-117.365 -260.868,-157.043 -267.959,-199.808C-273.883,-235.532 -301.156,-260.439 -337.18,-264.974C-359.275,-267.755 -381.189,-267.193 -403.116,-266.371C-405.172,-251.282 -402.697,-237.342 -402.706,-221.6L-402.843,16.165L-365.745,16.066L-363.456,-102.009L-288.233,15.55C-273.849,16.516 -260.064,16.204 -245.412,15.705L-321.124,-103.429ZM643.526,-134.199L643.143,-227.941C650.873,-231.637 658.775,-228.776 666.625,-227.925C694.216,-224.934 711.652,-202.237 707.557,-173.944C702.376,-138.154 676.668,-131.71 643.526,-134.199M764.124,17L689.55,-102.916C744.693,-119.558 754.777,-185.107 732.193,-227.328C706.906,-274.603 649.606,-266.461 605.78,-266.536C604.26,-250.16 606.509,-235.917 606.531,-219.498L606.836,15.517C618.986,16.533 630.846,16.457 642.942,15.909L646.296,-102.513L721.771,15.981C737.378,16.41 749.657,15.008 764.124,17M477.598,-34.535C456.454,-22.852 431.514,-19.997 407.725,-23.851L408.03,-227.457C460.712,-233.072 506.079,-207.93 518.714,-158.089C529.967,-113.701 521.18,-58.615 477.598,-34.535M545.327,-54.364C565.361,-98.827 565.383,-150.797 544.443,-194.652C523.143,-239.26 479.789,-266.134 431.542,-266.189L370.441,-266.257C368.745,-252.16 370.98,-238.864 371.002,-224.071L371.311,-11.374C371.325,-1.582 368.092,6.618 370.378,16.09C393.713,15.949 415.739,17.127 440.703,15.412C486.523,12.265 526.568,-12.734 545.327,-54.364M273.271,-266.179L274.176,-149.307C274.382,-122.706 276.648,-96.799 272.574,-70.228L95.328,-282.045L95.849,15.932L131.676,15.57L133.184,-178.68L309.252,27.128L309.947,-265.926C296.764,-267.366 285.63,-266.654 273.271,-266.179M818.256,-124.94C818.297,-159.076 830.814,-189.738 856.361,-211.909C888.318,-239.643 935.359,-238.901 965.957,-207.753C1006.705,-166.274 1011.137,-96.508 974.922,-50.763C949.937,-19.204 907.135,-7.501 871.336,-27.266C835.263,-47.184 818.209,-85.697 818.256,-124.94M975.378,-249.2C931.834,-282.531 873.797,-278.583 832.894,-241.974C797.204,-210.031 780.18,-163.956 782.086,-115.097C784.226,-60.229 814.337,-9.397 865.214,12.568C913.887,33.583 968.05,17.282 1001.881,-23.726C1056.355,-89.755 1044.51,-196.284 975.378,-249.2M1295.96,29.775L1295.456,-266.084L1259.643,-266.121L1258.569,-71.989L1081.307,-282.65C1079.064,-254.484 1082.154,-228.392 1082.206,-200.054L1082.597,15.917C1095.3,15.553 1106.824,17.335 1117.959,15.017L1119.709,-178.688L1222.627,-57.834C1247.978,-28.065 1272.866,0.088 1295.96,29.775M-863.674,-70.497C-849.747,-37.118 -837.697,-4.596 -825.935,29.429L-754.549,-156.589L-730.203,15.969C-718.455,15.775 -707.722,16.9 -694.781,15.304L-742.172,-300.424C-752.284,-258.436 -765.919,-222.444 -780.572,-183.888L-825.402,-65.932L-857.573,-151.081C-876.273,-200.574 -894.377,-249.041 -909.286,-298.117L-956.891,15.79C-944.24,16.211 -933.349,16.457 -921.201,15.593L-896.114,-153.075C-882.346,-124.263 -874.982,-97.599 -863.674,-70.497M1688.086,-51.506C1645.463,-108.187 1664.839,-201.654 1724.591,-226.691C1759.245,-241.213 1796.843,-227.599 1820.031,-200.065L1820.966,-248.798C1772.914,-284.99 1708.695,-278.481 1668.766,-232.971C1630.819,-189.721 1619.029,-130.576 1635.584,-74.64C1648.388,-31.379 1679.451,4.381 1723.099,17.69C1756.617,27.911 1790.926,18.436 1819.874,0.06C1820.481,-16.354 1820.82,-30.951 1819.467,-48.424L1801.166,-34.031C1764.754,-5.392 1715.812,-14.635 1688.086,-51.506M1914.781,-50.125C1878.185,-94.926 1880.116,-162.596 1919.744,-204.773C1956.048,-243.412 2013.487,-239.64 2045.576,-198.945C2080.949,-154.084 2079.447,-79.279 2035.893,-39.924C1998.78,-6.389 1945.947,-11.971 1914.781,-50.125M2054.332,-244.006C2010.807,-281.806 1948.764,-280.916 1905.55,-243.502C1835.449,-182.81 1834.21,-67.606 1903.816,-7.017C1944.803,28.659 2003.501,32.429 2048.569,-1.05C2125.155,-57.943 2126.855,-181.023 2054.332,-244.006M2372.377,14.953C2384.325,16.248 2395.511,16.757 2408.471,15.215L2360.619,-297.914C2350.618,-261.416 2339.195,-226.638 2325.393,-191.019L2277.343,-67.02C2263.743,-96.299 2256.4,-122.791 2245.308,-150.235C2225.533,-199.161 2208.093,-246.963 2193.491,-298.506L2144.687,15.749L2180.175,15.968L2205.906,-153.838C2218.223,-129.682 2224.984,-106.012 2234.255,-81.809L2275.421,25.66C2272.26,32.169 2281.741,31.515 2277.654,25.114L2348.146,-156.443L2372.377,14.953ZM1584.95,-4.232C1584.95,9.21 1574.05,20.106 1560.605,20.106C1547.159,20.106 1536.26,9.21 1536.26,-4.232C1536.26,-17.673 1547.159,-28.569 1560.605,-28.569C1574.05,-28.569 1584.95,-17.673 1584.95,-4.232" style="fill:currentColor;fill-rule:nonzero;"/>
                </g>
                <g transform="matrix(0.093114,0,0,0.093114,54.205198,175.469477)">
                    <path d="M0,120.989L19.982,120.989L-37.77,-7.601L-97.638,120.989L-77.969,120.989L-64.491,91.604L-12.694,91.604L0,120.989ZM-56.89,74.443L-38.083,33.303L-20.139,74.443L-56.89,74.443ZM128.991,-0L62.227,-0L62.227,120.989L128.991,120.989L128.991,103.828L80.485,103.828L80.485,63.394L127.58,63.394L127.58,46.233L80.485,46.233L80.485,17.161L128.991,17.161L128.991,-0ZM240.507,57.595C245.417,51.431 247.873,44.066 247.873,35.497C247.873,24.527 243.955,15.699 236.119,9.011C229.014,3.005 217.469,-0 201.483,-0L180.091,-0L180.091,120.989L198.349,120.989L198.349,71.465L201.64,71.465L236.197,120.989L258.53,120.989L221.074,69.427C229.118,67.703 235.596,63.76 240.507,57.595M198.349,17.161L204.853,17.161C221.674,17.161 230.085,23.351 230.085,35.732C230.085,48.949 221.438,55.558 204.148,55.558L198.349,55.558L198.349,17.161ZM303.831,120.989L322.089,120.989L322.089,-0L303.831,-0L303.831,120.989ZM462.051,120.989L482.033,120.989L424.281,-7.601L364.413,120.989L384.082,120.989L397.56,91.604L449.356,91.604L462.051,120.989ZM405.161,74.443L423.967,33.303L441.912,74.443L405.161,74.443ZM524.278,-0L524.278,120.989L578.112,120.989L578.112,103.828L542.536,103.828L542.536,-0L524.278,-0ZM757.105,-2.351C737.202,-2.351 720.981,5.042 708.443,19.825C698.257,31.893 693.163,45.633 693.163,61.043C693.163,78.231 699.249,92.91 711.421,105.082C723.646,117.149 738.403,123.183 755.695,123.183C767.187,123.183 778.158,120.232 788.607,114.328L788.607,92.309C785.629,94.817 782.794,96.959 780.104,98.735C777.414,100.511 774.815,101.922 772.308,102.966C767.814,105.056 762.356,106.1 755.93,106.1C743.497,106.1 732.996,101.739 724.429,93.014C715.861,84.29 711.578,73.581 711.578,60.886C711.578,48.035 715.861,37.17 724.429,28.288C732.943,19.355 743.418,14.888 755.852,14.888C767.136,14.888 778.054,19.303 788.607,28.132L788.607,6.504C778.471,0.601 767.971,-2.351 757.105,-2.351M838.767,120.989L857.025,120.989L857.025,-0L838.767,-0L838.767,120.989ZM931.477,120.989L931.477,36.281L1019.711,128.355L1019.711,-0L1001.453,-0L1001.453,84.081L913.218,-8.228L913.218,120.989L931.477,120.989ZM1142.589,-0L1075.826,-0L1075.826,120.989L1142.589,120.989L1142.589,103.828L1094.084,103.828L1094.084,63.394L1141.179,63.394L1141.179,46.233L1094.084,46.233L1094.084,17.161L1142.589,17.161L1142.589,-0ZM1208.343,120.989L1221.351,47.878L1256.143,126.552L1291.954,47.957L1303.63,120.989L1322.358,120.989L1299.477,-9.09L1256.457,84.943L1214.925,-9.09L1189.458,120.989L1208.343,120.989ZM1458.872,120.989L1478.854,120.989L1421.102,-7.601L1361.234,120.989L1380.902,120.989L1394.38,91.604L1446.177,91.604L1458.872,120.989ZM1401.981,74.443L1420.788,33.303L1438.733,74.443L1401.981,74.443ZM1633.477,-2.351C1623.133,-2.351 1614.487,0.732 1607.54,6.896C1600.591,13.008 1597.118,20.609 1597.118,29.698C1597.118,43.177 1605.397,53.416 1621.958,60.416L1633.633,65.275C1636.663,66.581 1639.276,67.952 1641.469,69.388C1643.664,70.826 1645.453,72.366 1646.837,74.011C1648.221,75.657 1649.24,77.46 1649.893,79.419C1650.546,81.378 1650.873,83.532 1650.873,85.884C1650.873,91.735 1648.993,96.567 1645.231,100.38C1641.469,104.194 1636.741,106.1 1631.047,106.1C1623.838,106.1 1618.353,103.489 1614.592,98.264C1612.501,95.549 1611.039,90.637 1610.204,83.532L1591.71,87.607C1593.381,98.891 1597.587,107.642 1604.327,113.858C1611.169,120.075 1619.842,123.183 1630.342,123.183C1641.417,123.183 1650.689,119.527 1658.161,112.213C1665.578,104.952 1669.288,95.757 1669.288,84.63C1669.288,76.323 1667.015,69.31 1662.47,63.59C1657.925,57.869 1650.742,53.024 1640.921,49.053L1628.854,44.117C1620.078,40.512 1615.689,35.76 1615.689,29.855C1615.689,25.573 1617.36,22.019 1620.704,19.198C1624.046,16.326 1628.252,14.888 1633.32,14.888C1637.447,14.888 1640.816,15.725 1643.429,17.396C1645.936,18.859 1648.574,21.993 1651.343,26.799L1666.154,18.023C1658.317,4.441 1647.425,-2.351 1633.477,-2.351M1785.192,-0L1718.429,-0L1718.429,120.989L1785.192,120.989L1785.192,103.828L1736.687,103.828L1736.687,63.394L1783.782,63.394L1783.782,46.233L1736.687,46.233L1736.687,17.161L1785.192,17.161L1785.192,-0ZM1896.708,57.595C1901.619,51.431 1904.075,44.066 1904.075,35.497C1904.075,24.527 1900.157,15.699 1892.32,9.011C1885.215,3.005 1873.67,-0 1857.685,-0L1836.292,-0L1836.292,120.989L1854.55,120.989L1854.55,71.465L1857.841,71.465L1892.399,120.989L1914.731,120.989L1877.275,69.427C1885.319,67.703 1891.797,63.76 1896.708,57.595M1854.55,17.161L1861.054,17.161C1877.875,17.161 1886.287,23.351 1886.287,35.732C1886.287,48.949 1877.64,55.558 1860.349,55.558L1854.55,55.558L1854.55,17.161ZM1941.854,-0L1994.904,130.079L2049.208,-0L2029.226,-0L1995.296,83.846L1961.836,-0L1941.854,-0ZM2091.375,120.989L2109.633,120.989L2109.633,-0L2091.375,-0L2091.375,120.989ZM2223.735,-2.351C2203.832,-2.351 2187.611,5.042 2175.073,19.825C2164.886,31.893 2159.792,45.633 2159.792,61.043C2159.792,78.231 2165.877,92.91 2178.05,105.082C2190.275,117.149 2205.033,123.183 2222.325,123.183C2233.817,123.183 2244.788,120.232 2255.236,114.328L2255.236,92.309C2252.258,94.817 2249.424,96.959 2246.734,98.735C2244.042,100.511 2241.445,101.922 2238.937,102.966C2234.444,105.056 2228.985,106.1 2222.56,106.1C2210.125,106.1 2199.625,101.739 2191.058,93.014C2182.491,84.29 2178.208,73.581 2178.208,60.886C2178.208,48.035 2182.491,37.17 2191.058,28.288C2199.573,19.355 2210.047,14.888 2222.481,14.888C2233.765,14.888 2244.683,19.303 2255.236,28.132L2255.236,6.504C2245.101,0.601 2234.6,-2.351 2223.735,-2.351M2372.159,-0L2305.396,-0L2305.396,120.989L2372.159,120.989L2372.159,103.828L2323.654,103.828L2323.654,63.394L2370.749,63.394L2370.749,46.233L2323.654,46.233L2323.654,17.161L2372.159,17.161L2372.159,-0ZM2458.993,-2.351C2448.649,-2.351 2440.002,0.732 2433.055,6.896C2426.107,13.008 2422.633,20.609 2422.633,29.698C2422.633,43.177 2430.913,53.416 2447.473,60.416L2459.149,65.275C2462.178,66.581 2464.792,67.952 2466.985,69.388C2469.179,70.826 2470.968,72.366 2472.353,74.011C2473.737,75.657 2474.755,77.46 2475.409,79.419C2476.062,81.378 2476.388,83.532 2476.388,85.884C2476.388,91.735 2474.508,96.567 2470.747,100.38C2466.985,104.194 2462.256,106.1 2456.563,106.1C2449.354,106.1 2443.869,103.489 2440.108,98.264C2438.017,95.549 2436.554,90.637 2435.719,83.532L2417.226,87.607C2418.897,98.891 2423.103,107.642 2429.842,113.858C2436.685,120.075 2445.358,123.183 2455.858,123.183C2466.933,123.183 2476.205,119.527 2483.676,112.213C2491.093,104.952 2494.803,95.757 2494.803,84.63C2494.803,76.323 2492.531,69.31 2487.986,63.59C2483.441,57.869 2476.257,53.024 2466.437,49.053L2454.37,44.117C2445.593,40.512 2441.205,35.76 2441.205,29.855C2441.205,25.573 2442.875,22.019 2446.219,19.198C2449.562,16.326 2453.768,14.888 2458.835,14.888C2462.962,14.888 2466.332,15.725 2468.945,17.396C2471.452,18.859 2474.089,21.993 2476.859,26.799L2491.669,18.023C2483.833,4.441 2472.941,-2.351 2458.993,-2.351" style="fill:rgb(35,31,32);fill-rule:nonzero;"/>
                </g>
            </g>
        </g>
    </g>
</svg>
