<?xml version="1.0" encoding="UTF-8" standalone="no"?>
<!DOCTYPE svg PUBLIC "-//W3C//DTD SVG 1.1//EN" "http://www.w3.org/Graphics/SVG/1.1/DTD/svg11.dtd">
<svg width="100%" height="100%" viewBox="0 0 1101 130" version="1.1" xmlns="http://www.w3.org/2000/svg" xmlns:xlink="http://www.w3.org/1999/xlink" xml:space="preserve" xmlns:serif="http://www.serif.com/" style="fill-rule:evenodd;clip-rule:evenodd;stroke-linejoin:round;stroke-miterlimit:2;">
    <g transform="matrix(0.323995,0,0,0.323995,315.50292,110.354497)">
        <path d="M0,-266.841L0.338,16.299L37.607,16.255L37.269,-266.885L0,-266.841ZM-139.629,-67.646L-209.372,-266.299C-223.152,-266.444 -235.393,-267.297 -248.98,-265.576L-140.103,31.319L-69.995,-160.347L-30.005,-266.275C-44.183,-266.488 -55.828,-267.252 -69.005,-265.962L-139.629,-67.646ZM1486.523,-153.255L1392.503,-154.353L1393.138,-227.502L1488.778,-228.218L1489.176,-266.437L1355.533,-266.403L1356.126,15.875L1489.057,15.632L1489.234,-21.593L1392.947,-22.446L1393.069,-115.695L1486.68,-116.689C1487.23,-129.33 1487.53,-141.251 1486.523,-153.255M-590.282,-90.744L-551.534,-196.403L-513.404,-90.882L-590.282,-90.744ZM-474.438,15.435L-435.348,16.026L-461.585,-54.934L-551.586,-289.969L-586.371,-197.734L-668.159,15.621C-654.036,16.356 -641.926,16.792 -629.169,14.753L-603.598,-52.93L-498.413,-52.822L-474.438,15.435ZM-365.232,-134.306L-365.574,-228.265C-353.332,-230.132 -341.504,-228.629 -330.411,-224.623C-310.754,-217.522 -299.584,-199.198 -301.708,-177.119C-305.24,-140.393 -331.99,-131.825 -365.232,-134.306M-321.124,-103.429C-276.446,-117.365 -260.868,-157.043 -267.959,-199.808C-273.883,-235.532 -301.156,-260.439 -337.18,-264.974C-359.275,-267.755 -381.189,-267.193 -403.116,-266.371C-405.172,-251.282 -402.697,-237.342 -402.706,-221.6L-402.843,16.165L-365.745,16.066L-363.456,-102.009L-288.233,15.55C-273.849,16.516 -260.064,16.204 -245.412,15.705L-321.124,-103.429ZM643.526,-134.199L643.143,-227.941C650.873,-231.637 658.775,-228.776 666.625,-227.925C694.216,-224.934 711.652,-202.237 707.557,-173.944C702.376,-138.154 676.668,-131.71 643.526,-134.199M764.124,17L689.55,-102.916C744.693,-119.558 754.777,-185.107 732.193,-227.328C706.906,-274.603 649.606,-266.461 605.78,-266.536C604.26,-250.16 606.509,-235.917 606.531,-219.498L606.836,15.517C618.986,16.533 630.846,16.457 642.942,15.909L646.296,-102.513L721.771,15.981C737.378,16.41 749.657,15.008 764.124,17M477.598,-34.535C456.454,-22.852 431.514,-19.997 407.725,-23.851L408.03,-227.457C460.712,-233.072 506.079,-207.93 518.714,-158.089C529.967,-113.701 521.18,-58.615 477.598,-34.535M545.327,-54.364C565.361,-98.827 565.383,-150.797 544.443,-194.652C523.143,-239.26 479.789,-266.134 431.542,-266.189L370.441,-266.257C368.745,-252.16 370.98,-238.864 371.002,-224.071L371.311,-11.374C371.325,-1.582 368.092,6.618 370.378,16.09C393.713,15.949 415.739,17.127 440.703,15.412C486.523,12.265 526.568,-12.734 545.327,-54.364M273.271,-266.179L274.176,-149.307C274.382,-122.706 276.648,-96.799 272.574,-70.228L95.328,-282.045L95.849,15.932L131.676,15.57L133.184,-178.68L309.252,27.128L309.947,-265.926C296.764,-267.366 285.63,-266.654 273.271,-266.179M818.256,-124.94C818.297,-159.076 830.814,-189.738 856.361,-211.909C888.318,-239.643 935.359,-238.901 965.957,-207.753C1006.705,-166.274 1011.137,-96.508 974.922,-50.763C949.937,-19.204 907.135,-7.501 871.336,-27.266C835.263,-47.184 818.209,-85.697 818.256,-124.94M975.378,-249.2C931.834,-282.531 873.797,-278.583 832.894,-241.974C797.204,-210.031 780.18,-163.956 782.086,-115.097C784.226,-60.229 814.337,-9.397 865.214,12.568C913.887,33.583 968.05,17.282 1001.881,-23.726C1056.355,-89.755 1044.51,-196.284 975.378,-249.2M1295.96,29.775L1295.456,-266.084L1259.643,-266.121L1258.569,-71.989L1081.307,-282.65C1079.064,-254.484 1082.154,-228.392 1082.206,-200.054L1082.597,15.917C1095.3,15.553 1106.824,17.335 1117.959,15.017L1119.709,-178.688L1222.627,-57.834C1247.978,-28.065 1272.866,0.088 1295.96,29.775M-863.674,-70.497C-849.747,-37.118 -837.697,-4.596 -825.935,29.429L-754.549,-156.589L-730.203,15.969C-718.455,15.775 -707.722,16.9 -694.781,15.304L-742.172,-300.424C-752.284,-258.436 -765.919,-222.444 -780.572,-183.888L-825.402,-65.932L-857.573,-151.081C-876.273,-200.574 -894.377,-249.041 -909.286,-298.117L-956.891,15.79C-944.24,16.211 -933.349,16.457 -921.201,15.593L-896.114,-153.075C-882.346,-124.263 -874.982,-97.599 -863.674,-70.497M1688.086,-51.506C1645.463,-108.187 1664.839,-201.654 1724.591,-226.691C1759.245,-241.213 1796.843,-227.599 1820.031,-200.065L1820.966,-248.798C1772.914,-284.99 1708.695,-278.481 1668.766,-232.971C1630.819,-189.721 1619.029,-130.576 1635.584,-74.64C1648.388,-31.379 1679.451,4.381 1723.099,17.69C1756.617,27.911 1790.926,18.436 1819.874,0.06C1820.481,-16.354 1820.82,-30.951 1819.467,-48.424L1801.166,-34.031C1764.754,-5.392 1715.812,-14.635 1688.086,-51.506M1914.781,-50.125C1878.185,-94.926 1880.116,-162.596 1919.744,-204.773C1956.048,-243.412 2013.487,-239.64 2045.576,-198.945C2080.949,-154.084 2079.447,-79.279 2035.893,-39.924C1998.78,-6.389 1945.947,-11.971 1914.781,-50.125M2054.332,-244.006C2010.807,-281.806 1948.764,-280.916 1905.55,-243.502C1835.449,-182.81 1834.21,-67.606 1903.816,-7.017C1944.803,28.659 2003.501,32.429 2048.569,-1.05C2125.155,-57.943 2126.855,-181.023 2054.332,-244.006M2372.377,14.953C2384.325,16.248 2395.511,16.757 2408.471,15.215L2360.619,-297.914C2350.618,-261.416 2339.195,-226.638 2325.393,-191.019L2277.343,-67.02C2263.743,-96.299 2256.4,-122.791 2245.308,-150.235C2225.533,-199.161 2208.093,-246.963 2193.491,-298.506L2144.687,15.749L2180.175,15.968L2205.906,-153.838C2218.223,-129.682 2224.984,-106.012 2234.255,-81.809L2275.421,25.66C2272.26,32.169 2281.741,31.515 2277.654,25.114L2348.146,-156.443L2372.377,14.953ZM1584.95,-4.232C1584.95,9.21 1574.05,20.106 1560.605,20.106C1547.159,20.106 1536.26,9.21 1536.26,-4.232C1536.26,-17.673 1547.159,-28.569 1560.605,-28.569C1574.05,-28.569 1584.95,-17.673 1584.95,-4.232" style="fill:white;fill-rule:nonzero;"/>
    </g>
</svg>
