<?xml version="1.0" encoding="utf-8"?>
<!-- Generator: Adobe Illustrator 26.5.3, SVG Export Plug-In . SVG Version: 6.00 Build 0)  -->
<svg version="1.1" id="Livello_1" xmlns="http://www.w3.org/2000/svg" xmlns:xlink="http://www.w3.org/1999/xlink" x="0px" y="0px"
	 viewBox="0 0 341.6 226.2" style="enable-background:new 0 0 341.6 226.2;" xml:space="preserve">
<style type="text/css">
	.st0{fill-rule:evenodd;clip-rule:evenodd;fill:currentColor;}
</style>
<g>
	<g>
		<path d="M20.4,171.3l2.4-19.1l6.4,20.6l6.6-20.6l2.1,19.1h3.4l-4.2-34l-7.9,24.6l-7.6-24.6l-4.7,34H20.4L20.4,171.3z
			 M61.5,171.3h3.7l-10.6-33.6l-11,33.6h3.6l2.5-7.7h9.5L61.5,171.3L61.5,171.3z M51,159.1l3.5-10.8l3.3,10.8H51L51,159.1z
			 M79,154.7c0.9-1.6,1.4-3.5,1.4-5.8c0-2.9-0.7-5.2-2.2-6.9c-1.3-1.6-3.4-2.4-6.4-2.4h-3.9v31.7h3.4v-13h0.6l6.4,13h4.1l-6.9-13.5
			C76.9,157.4,78.1,156.3,79,154.7L79,154.7z M71.3,144.1h1.2c3.1,0,4.6,1.6,4.6,4.9c0,3.5-1.6,5.2-4.8,5.2h-1.1V144.1L71.3,144.1z
			 M82.3,139.6H86l6.2,21.9l6.2-21.9h3.7l-10,34L82.3,139.6L82.3,139.6z M104.8,171.3h3.4v-31.7h-3.4V171.3L104.8,171.3z
			 M116.9,171.3v-22.2l16.2,24.1v-33.6h-3.4v22l-16.2-24.2v33.8H116.9L116.9,171.3z M143,171.3c2.3,0,4-0.3,5.2-0.9
			c1.3-0.6,2.6-1.6,3.8-3.1c2.4-3,3.6-6.9,3.6-11.8c0-4.9-1.1-8.8-3.4-11.7c-1.1-1.5-2.4-2.5-3.8-3.1c-1.3-0.6-3.1-0.9-5.3-0.9h-4.7
			v31.7H143L143,171.3z M141.8,144.1h1.5c2.9,0,5,1,6.5,2.9c1.6,2.2,2.4,5,2.4,8.4c0,3.4-0.8,6.2-2.5,8.4c-0.8,1-1.7,1.8-2.7,2.3
			c-1,0.5-2.3,0.7-3.8,0.7h-1.5V144.1L141.8,144.1z M171,154.7c0.9-1.6,1.4-3.5,1.4-5.8c0-2.9-0.7-5.2-2.2-6.9
			c-1.3-1.6-3.4-2.4-6.4-2.4h-3.9v31.7h3.4v-13h0.6l6.4,13h4.1l-6.9-13.5C168.9,157.4,170.1,156.3,171,154.7L171,154.7z
			 M163.2,144.1h1.2c3.1,0,4.6,1.6,4.6,4.9c0,3.5-1.6,5.2-4.8,5.2h-1.1V144.1L163.2,144.1z M179.8,167.6c2.3,2.8,4.9,4.2,7.7,4.2
			c3.2,0,6-1.6,8.3-4.8c2.3-3.2,3.4-7,3.4-11.6c0-4.5-1.1-8.4-3.4-11.6c-2.3-3.2-5-4.8-8.2-4.8c-3.2,0-6,1.6-8.2,4.8
			c-2.3,3.2-3.4,7-3.4,11.5C176,160.4,177.3,164.5,179.8,167.6L179.8,167.6z M181.8,147c1.6-2.3,3.5-3.4,5.9-3.4
			c2.3,0,4.3,1.1,5.8,3.4c1.6,2.3,2.4,5.1,2.4,8.5c0,3.3-0.8,6.2-2.4,8.5c-1.6,2.3-3.6,3.4-5.9,3.4c-2.2,0-4-1.1-5.7-3.4
			c-1.7-2.3-2.5-5.1-2.5-8.6C179.4,152,180.2,149.2,181.8,147L181.8,147z M206.8,171.3v-22.2l16.2,24.1v-33.6h-3.4v22l-16.2-24.2
			v33.8H206.8L206.8,171.3z M240.6,139.6h-12.3v31.7h12.3v-4.5h-8.9v-10.6h8.7v-4.5h-8.7v-7.6h8.9V139.6L240.6,139.6z M245.5,171.1
			c0.4,0.5,0.9,0.8,1.4,0.8c0.6,0,1-0.3,1.4-0.8c0.4-0.6,0.6-1.2,0.6-2c0-0.8-0.2-1.4-0.6-2c-0.4-0.6-0.9-0.8-1.4-0.8
			c-0.5,0-1,0.3-1.4,0.8c-0.4,0.6-0.6,1.2-0.6,2C244.9,169.8,245.1,170.5,245.5,171.1L245.5,171.1z M264.8,139
			c-3.7,0-6.6,1.9-8.9,5.8c-1.9,3.2-2.8,6.8-2.8,10.8c0,4.5,1.1,8.3,3.4,11.5c2.2,3.2,5,4.7,8.1,4.7c2.1,0,4.1-0.8,6.1-2.3v-5.8
			c-0.5,0.7-1.1,1.2-1.6,1.7c-0.5,0.5-1,0.8-1.4,1.1c-0.8,0.5-1.8,0.8-3,0.8c-2.3,0-4.2-1.1-5.8-3.4c-1.6-2.3-2.4-5.1-2.4-8.4
			c0-3.4,0.8-6.2,2.4-8.5c1.6-2.3,3.5-3.5,5.8-3.5c2.1,0,4.1,1.2,6,3.5v-5.6C268.7,139.8,266.8,139,264.8,139L264.8,139z
			 M277.4,167.6c2.3,2.8,4.9,4.2,7.7,4.2c3.2,0,6-1.6,8.3-4.8c2.3-3.2,3.4-7,3.4-11.6c0-4.5-1.1-8.4-3.4-11.6
			c-2.3-3.2-5-4.8-8.2-4.8c-3.2,0-6,1.6-8.2,4.8c-2.3,3.2-3.4,7-3.4,11.5C273.6,160.4,274.8,164.5,277.4,167.6L277.4,167.6z
			 M279.4,147c1.6-2.3,3.5-3.4,5.9-3.4c2.3,0,4.3,1.1,5.8,3.4c1.6,2.3,2.4,5.1,2.4,8.5c0,3.3-0.8,6.2-2.4,8.5
			c-1.6,2.3-3.6,3.4-5.9,3.4c-2.2,0-4-1.1-5.7-3.4c-1.7-2.3-2.5-5.1-2.5-8.6C277,152,277.8,149.2,279.4,147L279.4,147z M303.7,171.3
			l2.4-19.1l6.4,20.6l6.6-20.6l2.1,19.1h3.4l-4.2-34l-7.9,24.6l-7.6-24.6l-4.7,34H303.7z"/>
		<polygon points="137.7,93.6 123,77.7 101.1,107.7 91.2,95 66.2,129.2 91.1,104 100.9,119.4 122.9,92.5 139.2,110.7 
			170.1,60.1 206.6,117.1 234.3,91.1 275.4,131.5 235,81 208.7,102.8 169.6,38.7 		"/>
	</g>
	<path d="M18,186.9h1.4v-10.2H18V186.9L18,186.9z M25.1,186.9l1-6.1l2.6,6.6l2.7-6.6l0.9,6.1h1.4L32,176l-3.3,7.9
		l-3.1-7.9l-1.9,10.9H25.1L25.1,186.9z M39.3,186.9l1-6.1l2.6,6.6l2.7-6.6l0.9,6.1h1.4L46.2,176l-3.3,7.9l-3.1-7.9l-1.9,10.9H39.3
		L39.3,186.9z M58.6,186.9h1.5l-4.4-10.8l-4.5,10.8h1.5l1-2.5h3.9L58.6,186.9L58.6,186.9z M54.3,183l1.4-3.5l1.4,3.5H54.3L54.3,183z
		 M68,183.1h2.3c-0.1,0.7-0.4,1.3-0.9,1.8c-0.5,0.5-1.2,0.8-1.8,0.8c-0.8,0-1.5-0.3-2.2-1c-0.7-0.7-1.1-1.7-1.1-2.8
		c0-1.1,0.3-2,1-2.7c0.7-0.7,1.5-1.1,2.4-1.1c1.1,0,2,0.6,2.7,1.7l1-1c-0.6-0.7-1.2-1.3-1.8-1.6c-0.6-0.3-1.3-0.5-2-0.5
		c-1.3,0-2.5,0.5-3.4,1.5c-0.9,1-1.4,2.3-1.4,3.7c0,1.4,0.5,2.7,1.4,3.7c0.9,1,2,1.5,3.3,1.5c1.3,0,2.4-0.5,3.2-1.6
		c0.4-0.5,0.6-1,0.8-1.5c0.2-0.6,0.2-1.3,0.2-2v-0.3H68V183.1L68,183.1z M76,186.9h1.4v-10.2H76V186.9L76,186.9z M83.4,186.9v-7.1
		l6.7,7.7v-10.8h-1.4v7.1l-6.7-7.7v10.8H83.4L83.4,186.9z M94.7,186.9h1.4v-10.2h-1.4V186.9L94.7,186.9z M113.2,186.9h1.5l-4.4-10.8
		l-4.5,10.8h1.5l1-2.5h3.9L113.2,186.9L113.2,186.9z M108.9,183l1.4-3.5l1.4,3.5H108.9L108.9,183z M123.4,176.8h-5.1v10.2h5.1v-1.4
		h-3.7v-3.4h3.6v-1.4h-3.6v-2.4h3.7V176.8L123.4,176.8z M132.2,181.6c0.4-0.5,0.6-1.1,0.6-1.9c0-0.9-0.3-1.7-0.9-2.2
		c-0.5-0.5-1.4-0.8-2.6-0.8h-1.6v10.2h1.4v-4.2h0.2l2.6,4.2h1.7l-2.8-4.3C131.3,182.5,131.8,182.1,132.2,181.6L132.2,181.6z
		 M129,178.2h0.5c1.3,0,1.9,0.5,1.9,1.6c0,1.1-0.7,1.7-2,1.7H129V178.2L129,178.2z M142.4,176.8h-5.1v10.2h5.1v-1.4h-3.7v-3.4h3.6
		v-1.4h-3.6v-2.4h3.7V176.8L142.4,176.8z M151.7,176.8h-5.1v10.2h5.1v-1.4h-3.7v-3.4h3.6v-1.4h-3.6v-2.4h3.7V176.8L151.7,176.8z
		 M166.6,176.6c-1.5,0-2.7,0.6-3.7,1.9c-0.8,1-1.2,2.2-1.2,3.5c0,1.4,0.5,2.7,1.4,3.7c0.9,1,2,1.5,3.4,1.5c0.9,0,1.7-0.2,2.5-0.7
		v-1.9c-0.2,0.2-0.4,0.4-0.6,0.5c-0.2,0.1-0.4,0.3-0.6,0.4c-0.3,0.2-0.8,0.3-1.2,0.3c-0.9,0-1.7-0.4-2.4-1.1c-0.6-0.7-1-1.6-1-2.7
		c0-1.1,0.3-2,1-2.7c0.6-0.8,1.4-1.1,2.4-1.1c0.9,0,1.7,0.4,2.5,1.1v-1.8C168.2,176.8,167.4,176.6,166.6,176.6L166.6,176.6z
		 M173.1,186.9h1.4v-10.2h-1.4V186.9L173.1,186.9z M180.5,186.9v-7.1l6.7,7.7v-10.8h-1.4v7.1l-6.7-7.7v10.8H180.5L180.5,186.9z
		 M196.9,176.8h-5.1v10.2h5.1v-1.4h-3.7v-3.4h3.6v-1.4h-3.6v-2.4h3.7V176.8L196.9,176.8z M202.3,186.9l1-6.1l2.6,6.6l2.7-6.6
		l0.9,6.1h1.4l-1.7-10.9l-3.3,7.9l-3.1-7.9l-1.9,10.9H202.3L202.3,186.9z M221.6,186.9h1.5l-4.4-10.8l-4.5,10.8h1.5l1-2.5h3.9
		L221.6,186.9L221.6,186.9z M217.3,183l1.4-3.5l1.4,3.5H217.3L217.3,183z M230.8,178.2v-1.4h-5.6v1.4h2.1v8.7h1.4v-8.7H230.8
		L230.8,178.2z M235.3,185.7c0.9,0.9,2,1.4,3.2,1.4c1.3,0,2.5-0.5,3.4-1.5c0.9-1,1.4-2.3,1.4-3.7c0-1.5-0.5-2.7-1.4-3.7
		c-0.9-1-2.1-1.6-3.4-1.6c-1.3,0-2.5,0.5-3.4,1.5c-0.9,1-1.4,2.3-1.4,3.7C233.8,183.4,234.3,184.7,235.3,185.7L235.3,185.7z
		 M236.1,179.1c0.7-0.7,1.5-1.1,2.4-1.1c1,0,1.8,0.4,2.4,1.1c0.7,0.7,1,1.6,1,2.7c0,1.1-0.3,2-1,2.7c-0.7,0.7-1.5,1.1-2.4,1.1
		c-0.9,0-1.7-0.4-2.3-1.1c-0.7-0.7-1-1.6-1-2.8C235.1,180.7,235.5,179.9,236.1,179.1L236.1,179.1z M252.2,183.1h2.3
		c-0.1,0.7-0.4,1.3-0.9,1.8c-0.5,0.5-1.2,0.8-1.8,0.8c-0.8,0-1.5-0.3-2.2-1c-0.7-0.7-1.1-1.7-1.1-2.8c0-1.1,0.3-2,1-2.7
		c0.7-0.7,1.5-1.1,2.4-1.1c1.1,0,2,0.6,2.7,1.7l1-1c-0.6-0.7-1.2-1.3-1.8-1.6c-0.6-0.3-1.3-0.5-2-0.5c-1.3,0-2.5,0.5-3.4,1.5
		c-0.9,1-1.4,2.3-1.4,3.7c0,1.4,0.5,2.7,1.4,3.7c0.9,1,2,1.5,3.3,1.5c1.3,0,2.4-0.5,3.2-1.6c0.4-0.5,0.6-1,0.8-1.5
		c0.2-0.6,0.2-1.3,0.2-2v-0.3h-3.8V183.1L252.2,183.1z M264.8,181.6c0.4-0.5,0.6-1.1,0.6-1.9c0-0.9-0.3-1.7-0.9-2.2
		c-0.5-0.5-1.4-0.8-2.6-0.8h-1.6v10.2h1.4v-4.2h0.2l2.6,4.2h1.7l-2.8-4.3C263.9,182.5,264.4,182.1,264.8,181.6L264.8,181.6z
		 M261.6,178.2h0.5c1.3,0,1.9,0.5,1.9,1.6c0,1.1-0.7,1.7-2,1.7h-0.4V178.2L261.6,178.2z M276.3,186.9h1.5l-4.4-10.8l-4.5,10.8h1.5
		l1-2.5h3.9L276.3,186.9L276.3,186.9z M272,183l1.4-3.5l1.4,3.5H272L272,183z M285.9,176.8h-4.6v10.2h1.4v-4.8h3.1v-1.4h-3.1v-2.4
		h3.2V176.8L285.9,176.8z M290,186.9h1.4v-10.2H290V186.9L290,186.9z M300.4,176.6c-1.5,0-2.7,0.6-3.7,1.9c-0.8,1-1.2,2.2-1.2,3.5
		c0,1.4,0.5,2.7,1.4,3.7c0.9,1,2,1.5,3.4,1.5c0.9,0,1.7-0.2,2.5-0.7v-1.9c-0.2,0.2-0.4,0.4-0.6,0.5c-0.2,0.1-0.4,0.3-0.6,0.4
		c-0.3,0.2-0.8,0.3-1.2,0.3c-0.9,0-1.7-0.4-2.4-1.1c-0.6-0.7-1-1.6-1-2.7c0-1.1,0.3-2,1-2.7c0.6-0.8,1.4-1.1,2.4-1.1
		c0.9,0,1.7,0.4,2.5,1.1v-1.8C302,176.8,301.2,176.6,300.4,176.6L300.4,176.6z M308.6,176.8h-1.4v10.2h1.4v-4.7h4v4.7h1.4v-10.2
		h-1.4v4h-4V176.8L308.6,176.8z M323.6,176.8h-5.1v10.2h5.1v-1.4h-3.7v-3.4h3.6v-1.4h-3.6v-2.4h3.7V176.8z"/>
</g>
</svg>
